<?xml version="1.0" encoding="UTF-8"?>
<svg version="1.1" xmlns="http://www.w3.org/2000/svg" width="108" height="108">
<path d="M0 0 C35.64 0 71.28 0 108 0 C108 35.64 108 71.28 108 108 C72.36 108 36.72 108 0 108 C0 72.36 0 36.72 0 0 Z " fill="#C1927A" transform="translate(0,0)"/>
<path d="M0 0 C35.64 0 71.28 0 108 0 C108 10.56 108 21.12 108 32 C106.02 30.68 104.04 29.36 102 28 C102 27.01 102 26.02 102 25 C101.34 25 100.68 25 100 25 C99.4121875 24.3503125 99.4121875 24.3503125 98.8125 23.6875 C96.1874619 21.24349901 93.32711134 20.3182894 90 19 C90 18.34 90 17.68 90 17 C88.88625 17.020625 87.7725 17.04125 86.625 17.0625 C83 17 83 17 81 16 C80.375 13.4375 80.375 13.4375 80 11 C79.01128906 11.31195313 78.02257812 11.62390625 77.00390625 11.9453125 C72.35378116 13.2765936 67.68088342 13.66217366 62.87304688 14.03515625 C57.89112826 14.54244095 55.02077867 16.11717756 51 19 C50.01 19 49.02 19 48 19 C48 20.32 48 21.64 48 23 C47.21625 23.28875 46.4325 23.5775 45.625 23.875 C42.90328368 24.84912254 42.90328368 24.84912254 41 27 C40.7387878 29.21357408 40.7387878 29.21357408 40.83984375 31.76171875 C40.85080078 32.71626953 40.86175781 33.67082031 40.87304688 34.65429688 C40.90495117 36.15573242 40.90495117 36.15573242 40.9375 37.6875 C41.16622044 50.58902691 41.16622044 50.58902691 40 56 C39.34 56.66 38.68 57.32 38 58 C37.3574765 60.06874034 37.3574765 60.06874034 37 62 C36.34 62 35.68 62 35 62 C35 62.66 35 63.32 35 64 C34.01 64.66 33.02 65.32 32 66 C32.33 67.32 32.66 68.64 33 70 C31.68 69.67 30.36 69.34 29 69 C29 67.35 29 65.7 29 64 C27.35 64 25.7 64 24 64 C24 63.34 24 62.68 24 62 C22.68 61.67 21.36 61.34 20 61 C20 59.35 20 57.7 20 56 C18.4840625 56.3403125 18.4840625 56.3403125 16.9375 56.6875 C12.1555952 57.06701625 10.19498514 56.14029854 6 54 C6 52.35 6 50.7 6 49 C4.02 48.67 2.04 48.34 0 48 C0 32.16 0 16.32 0 0 Z " fill="#FDEC85" transform="translate(0,0)"/>
<path d="M0 0 C4.16428373 1.66571349 7.94388464 3.52856442 11.8125 5.75 C12.42689941 6.10126953 13.04129883 6.45253906 13.67431641 6.81445312 C18.381291 9.54809529 22.78622931 12.54523149 27 16 C27.67095703 15.3503125 27.67095703 15.3503125 28.35546875 14.6875 C33.38203593 10.05748503 33.38203593 10.05748503 36.6875 9.75 C37.450625 9.8325 38.21375 9.915 39 10 C40.32 9.34 41.64 8.68 43 8 C43.495 14.93 43.495 14.93 44 22 C44.99 22.33 45.98 22.66 47 23 C49.41427274 26.19536099 51.3836103 28.99346695 52 33 C52.66 33 53.32 33 54 33 C54.33 33.66 54.66 34.32 55 35 C62.24476896 37.41492299 70.13989233 36.16907148 77 33 C79.29577243 30.48593689 79.29577243 30.48593689 81 28 C83.6875 27.3125 83.6875 27.3125 86 27 C86.33 26.34 86.66 25.68 87 25 C89.62581138 23.42451317 90.87099787 23 94 23 C97.27287777 19.51626456 99.38285092 14.91086565 101.6875 10.75 C102.31108398 9.63238281 102.31108398 9.63238281 102.94726562 8.4921875 C103.96744233 6.66290513 104.98407487 4.83164698 106 3 C106.99 3.495 106.99 3.495 108 4 C108 17.53 108 31.06 108 45 C72.36 45 36.72 45 0 45 C0 30.15 0 15.3 0 0 Z " fill="#184454" transform="translate(0,63)"/>
<path d="M0 0 C0.495 2.475 0.495 2.475 1 5 C3.97 5.33 6.94 5.66 10 6 C10 6.66 10 7.32 10 8 C10.763125 8.268125 11.52625 8.53625 12.3125 8.8125 C15.80525377 10.35580981 17.43571763 11.79467626 19.0625 15.26953125 C19.371875 16.10871094 19.68125 16.94789062 20 17.8125 C21.10211542 20.75006148 22.16276873 23.27903211 23.75 26 C27.16148667 34.187568 24.35340938 42.84711751 22 51 C19.525 51.495 19.525 51.495 17 52 C16.67 53.98 16.34 55.96 16 58 C15.67 58 15.34 58 15 58 C14.505 54.535 14.505 54.535 14 51 C15.32 51 16.64 51 18 51 C18 50.34 18 49.68 18 49 C16.68 49 15.36 49 14 49 C12.82379672 45.68049297 11.81859186 42.37968034 11.03515625 38.94921875 C10.87466797 38.25119141 10.71417969 37.55316406 10.54882812 36.83398438 C10.22058608 35.38523735 9.9004566 33.93463167 9.58789062 32.48242188 C9.15453083 30.62985189 8.58659796 28.80989477 8 27 C4.78577773 25.92859258 2.70259485 25.95088687 -0.6640625 26.0859375 C-1.78683594 26.12976563 -2.90960938 26.17359375 -4.06640625 26.21875 C-5.24074219 26.2703125 -6.41507813 26.321875 -7.625 26.375 C-8.77613281 26.41882813 -9.92726563 26.46265625 -11.11328125 26.5078125 C-22.58577781 26.38849525 -22.58577781 26.38849525 -33 30 C-33.70445681 32.74245324 -34.24758427 35.34127096 -34.6875 38.125 C-34.81705078 38.87910156 -34.94660156 39.63320313 -35.08007812 40.41015625 C-35.39815904 42.27151866 -35.70058286 44.13554435 -36 46 C-40.58527144 37.96614206 -41.49316941 24.99697842 -40 16 C-38.2265625 13.62890625 -38.2265625 13.62890625 -36 12 C-34.68 12 -33.36 12 -32 12 C-32 10.68 -32 9.36 -32 8 C-30.00980253 6.98063057 -28.0072458 5.98537521 -26 5 C-24.96875 4.46375 -23.9375 3.9275 -22.875 3.375 C-18.60352952 1.53202847 -14.17046986 1.45314898 -9.57421875 1.2109375 C-6.14166923 0.92966637 -3.58357974 -0.09430473 0 0 Z " fill="#080201" transform="translate(80,11)"/>
<path d="M0 0 C0.80566406 -0.00386719 1.61132812 -0.00773437 2.44140625 -0.01171875 C8.37142857 -0.00178571 8.37142857 -0.00178571 10.625 1.125 C10.57859375 1.80046875 10.5321875 2.4759375 10.484375 3.171875 C10.10632384 8.85904931 10.10632384 8.85904931 12.625 13.75 C13.285 14.20375 13.945 14.6575 14.625 15.125 C11.92316945 16.47591528 9.50691794 16.46358058 6.5 16.6875 C5.40429688 16.77128906 4.30859375 16.85507812 3.1796875 16.94140625 C2.33664063 17.00199219 1.49359375 17.06257813 0.625 17.125 C0.295 18.115 -0.035 19.105 -0.375 20.125 C-1.035 20.785 -1.695 21.445 -2.375 22.125 C-1.715 22.455 -1.055 22.785 -0.375 23.125 C-0.375 23.785 -0.375 24.445 -0.375 25.125 C0.945 25.125 2.265 25.125 3.625 25.125 C4.12 26.115 4.12 26.115 4.625 27.125 C7.65434491 27.78272428 7.65434491 27.78272428 10.625 28.125 C10.625 27.465 10.625 26.805 10.625 26.125 C7.985 25.465 5.345 24.805 2.625 24.125 C2.625 23.135 2.625 22.145 2.625 21.125 C6.255 21.455 9.885 21.785 13.625 22.125 C14.12 23.61 14.12 23.61 14.625 25.125 C16.275 25.455 17.925 25.785 19.625 26.125 C19.48333643 28.04197937 19.33650416 29.95857723 19.1875 31.875 C19.10628906 32.94234375 19.02507812 34.0096875 18.94140625 35.109375 C18.68409227 37.56179962 18.30687782 39.76421291 17.625 42.125 C16.965 42.125 16.305 42.125 15.625 42.125 C15.50125 43.424375 15.3775 44.72375 15.25 46.0625 C15.0390625 48.27734375 15.0390625 48.27734375 14.625 50.125 C11.91620665 51.47939668 9.61566732 51.19001451 6.625 51.125 C7.285 49.145 7.945 47.165 8.625 45.125 C5.67122502 42.75519987 5.67122502 42.75519987 1.625 43.125 C1.295 40.815 0.965 38.505 0.625 36.125 C-0.035 36.125 -0.695 36.125 -1.375 36.125 C-1.375 34.805 -1.375 33.485 -1.375 32.125 C-2.365 31.795 -3.355 31.465 -4.375 31.125 C-4.375 30.465 -4.375 29.805 -4.375 29.125 C-5.035 28.795 -5.695 28.465 -6.375 28.125 C-6.045 26.475 -5.715 24.825 -5.375 23.125 C-6.633125 23.24875 -7.89125 23.3725 -9.1875 23.5 C-9.89519531 23.56960937 -10.60289063 23.63921875 -11.33203125 23.7109375 C-13.67488142 24.05165391 -13.67488142 24.05165391 -16.375 26.125 C-15.715 26.455 -15.055 26.785 -14.375 27.125 C-14.33245644 29.12454746 -14.33419217 31.12541636 -14.375 33.125 C-15.375 34.125 -15.375 34.125 -17.66015625 34.22265625 C-19.03494141 34.20525391 -19.03494141 34.20525391 -20.4375 34.1875 C-21.35660156 34.17847656 -22.27570312 34.16945312 -23.22265625 34.16015625 C-23.93292969 34.14855469 -24.64320312 34.13695312 -25.375 34.125 C-25.705 32.805 -26.035 31.485 -26.375 30.125 C-27.365 30.125 -28.355 30.125 -29.375 30.125 C-29.045 28.805 -28.715 27.485 -28.375 26.125 C-27.055 26.785 -25.735 27.445 -24.375 28.125 C-24.045 27.795 -23.715 27.465 -23.375 27.125 C-24.035 26.795 -24.695 26.465 -25.375 26.125 C-25.375 25.465 -25.375 24.805 -25.375 24.125 C-24.055 23.795 -22.735 23.465 -21.375 23.125 C-22.035 22.795 -22.695 22.465 -23.375 22.125 C-23.045 21.135 -22.715 20.145 -22.375 19.125 C-20.395 19.125 -18.415 19.125 -16.375 19.125 C-16.375 18.135 -16.375 17.145 -16.375 16.125 C-18.355 16.125 -20.335 16.125 -22.375 16.125 C-22.31489582 14.18664034 -22.22608283 12.24915509 -22.125 10.3125 C-22.05539063 8.69408203 -22.05539063 8.69408203 -21.984375 7.04296875 C-21.375 4.125 -21.375 4.125 -19.828125 2.30078125 C-13.80819616 -0.58456681 -6.54903989 -0.03236758 0 0 Z " fill="#D49C80" transform="translate(70.375,37.875)"/>
<path d="M0 0 C1.21236328 0.04060547 1.21236328 0.04060547 2.44921875 0.08203125 C3.06410156 0.11683594 3.67898437 0.15164062 4.3125 0.1875 C4.23 0.93 4.1475 1.6725 4.0625 2.4375 C4.38635698 5.99992679 5.80922827 6.76245551 8.3125 9.1875 C8.3125 10.5075 8.3125 11.8275 8.3125 13.1875 C8.9725 13.1875 9.6325 13.1875 10.3125 13.1875 C10.56 14.156875 10.8075 15.12625 11.0625 16.125 C11.475 17.135625 11.8875 18.14625 12.3125 19.1875 C14.22916667 20.02083333 14.22916667 20.02083333 16.3125 20.1875 C17.3025 20.8475 18.2925 21.5075 19.3125 22.1875 C18.6525 23.8375 17.9925 25.4875 17.3125 27.1875 C19.6225 27.1875 21.9325 27.1875 24.3125 27.1875 C24.6425 24.5475 24.9725 21.9075 25.3125 19.1875 C27.3125 19.1875 27.3125 19.1875 29.4375 21.1875 C30.365625 22.1775 30.365625 22.1775 31.3125 23.1875 C31.3125 22.5275 31.3125 21.8675 31.3125 21.1875 C30.6525 20.8575 29.9925 20.5275 29.3125 20.1875 C30.3025 19.8575 31.2925 19.5275 32.3125 19.1875 C33.8125 22.1875 33.8125 22.1875 35.3125 25.1875 C34.6525 25.8475 33.9925 26.5075 33.3125 27.1875 C32.6525 26.5275 31.9925 25.8675 31.3125 25.1875 C30.3225 26.1775 29.3325 27.1675 28.3125 28.1875 C27.6525 27.8575 26.9925 27.5275 26.3125 27.1875 C25.8175 28.6725 25.8175 28.6725 25.3125 30.1875 C23.6625 30.1875 22.0125 30.1875 20.3125 30.1875 C20.065 30.785625 19.8175 31.38375 19.5625 32 C17.30905191 35.94353415 14.92577467 36.99000477 10.625 38.375 C4.59544096 39.71615425 -1.19040569 40.30747244 -6.6875 37.1875 C-6.6875 36.5275 -6.6875 35.8675 -6.6875 35.1875 C-8.1725 35.6825 -8.1725 35.6825 -9.6875 36.1875 C-9.97625 35.300625 -10.265 34.41375 -10.5625 33.5 C-10.93375 32.406875 -11.305 31.31375 -11.6875 30.1875 C-12.120625 28.7953125 -12.120625 28.7953125 -12.5625 27.375 C-13.119375 26.2921875 -13.119375 26.2921875 -13.6875 25.1875 C-15.0075 24.8575 -16.3275 24.5275 -17.6875 24.1875 C-17.6875 19.5675 -17.6875 14.9475 -17.6875 10.1875 C-19.0075 11.1775 -20.3275 12.1675 -21.6875 13.1875 C-22.6775 12.5275 -23.6675 11.8675 -24.6875 11.1875 C-20.0625 7.1875 -20.0625 7.1875 -16.6875 7.1875 C-16.3575 8.1775 -16.0275 9.1675 -15.6875 10.1875 C-12.3875 10.1875 -9.0875 10.1875 -5.6875 10.1875 C-5.3575 8.2075 -5.0275 6.2275 -4.6875 4.1875 C-5.6775 3.8575 -6.6675 3.5275 -7.6875 3.1875 C-5.26849268 0.20484049 -3.789448 -0.16475861 0 0 Z " fill="#AF7469" transform="translate(60.6875,60.8125)"/>
<path d="M0 0 C0.495 2.475 0.495 2.475 1 5 C3.97 5.33 6.94 5.66 10 6 C10 6.66 10 7.32 10 8 C10.763125 8.268125 11.52625 8.53625 12.3125 8.8125 C14.98678071 9.99415892 16.31681182 10.64353655 18 13 C18.6875 16.1875 18.6875 16.1875 19 19 C18.01 18.67 17.02 18.34 16 18 C15.66666667 16.66666667 15.33333333 15.33333333 15 14 C14.01 13.67 13.02 13.34 12 13 C12 12.34 12 11.68 12 11 C11.34 11 10.68 11 10 11 C10 10.34 10 9.68 10 9 C4.555 8.505 4.555 8.505 -1 8 C-1 7.01 -1 6.02 -1 5 C-2.32 5 -3.64 5 -5 5 C-4.34 5.99 -3.68 6.98 -3 8 C-3.99 8.66 -4.98 9.32 -6 10 C-6 9.34 -6 8.68 -6 8 C-10.35535069 9.16142685 -12.64619703 10.07699505 -15 14 C-15.625 12.125 -15.625 12.125 -16 10 C-15.34 9.34 -14.68 8.68 -14 8 C-15.65 8 -17.3 8 -19 8 C-19 9.98 -19 11.96 -19 14 C-19.99 14.495 -19.99 14.495 -21 15 C-21.66 14.34 -22.32 13.68 -23 13 C-23.66 13.66 -24.32 14.32 -25 15 C-25 14.34 -25 13.68 -25 13 C-25.66 13 -26.32 13 -27 13 C-27.33 13.99 -27.66 14.98 -28 16 C-28.66 16 -29.32 16 -30 16 C-30 16.99 -30 17.98 -30 19 C-31.98 19.99 -31.98 19.99 -34 21 C-33.34 21.99 -32.68 22.98 -32 24 C-31.34 24 -30.68 24 -30 24 C-29.67 23.01 -29.34 22.02 -29 21 C-26.8537974 21.14029419 -24.70803782 21.28738164 -22.5625 21.4375 C-21.36753906 21.51871094 -20.17257813 21.59992187 -18.94140625 21.68359375 C-16 22 -16 22 -15 23 C-13.39951798 23.12535652 -11.79284072 23.17574787 -10.1875 23.1875 C-9.31480469 23.20167969 -8.44210938 23.21585938 -7.54296875 23.23046875 C-4.99215598 23.16528874 -4.99215598 23.16528874 -2.9609375 21.9140625 C-0.31561428 20.68098355 0.85913328 21.21319017 3.5625 22.1875 C4.32691406 22.44917969 5.09132812 22.71085937 5.87890625 22.98046875 C8.28073357 24.13493823 9.45010236 24.81917057 11 27 C11.66394312 29.57065158 12.19371449 32.01768303 12.625 34.625 C13.05594053 39.18336739 13.05594053 39.18336739 15 43 C15.04063832 44.66617115 15.042721 46.33388095 15 48 C14.71125 47.401875 14.4225 46.80375 14.125 46.1875 C12.95257974 43.80672208 12.95257974 43.80672208 11 41 C10.18369886 37.36724626 9.5346879 33.71957007 8.87890625 30.0546875 C8.58886719 29.04664062 8.29882812 28.03859375 8 27 C4.78577773 25.92859258 2.70259485 25.95088687 -0.6640625 26.0859375 C-1.78683594 26.12976563 -2.90960938 26.17359375 -4.06640625 26.21875 C-5.24074219 26.2703125 -6.41507813 26.321875 -7.625 26.375 C-8.77613281 26.41882813 -9.92726563 26.46265625 -11.11328125 26.5078125 C-22.58577781 26.38849525 -22.58577781 26.38849525 -33 30 C-33.70445681 32.74245324 -34.24758427 35.34127096 -34.6875 38.125 C-34.81705078 38.87910156 -34.94660156 39.63320313 -35.08007812 40.41015625 C-35.39815904 42.27151866 -35.70058286 44.13554435 -36 46 C-40.58527144 37.96614206 -41.49316941 24.99697842 -40 16 C-38.2265625 13.62890625 -38.2265625 13.62890625 -36 12 C-34.68 12 -33.36 12 -32 12 C-32 10.68 -32 9.36 -32 8 C-30.00980253 6.98063057 -28.0072458 5.98537521 -26 5 C-24.96875 4.46375 -23.9375 3.9275 -22.875 3.375 C-18.60352952 1.53202847 -14.17046986 1.45314898 -9.57421875 1.2109375 C-6.14166923 0.92966637 -3.58357974 -0.09430473 0 0 Z " fill="#1D0601" transform="translate(80,11)"/>
<path d="M0 0 C4.16428373 1.66571349 7.94388464 3.52856442 11.8125 5.75 C12.42689941 6.10126953 13.04129883 6.45253906 13.67431641 6.81445312 C18.381291 9.54809529 22.78622931 12.54523149 27 16 C26 19 26 19 24.25 20.1875 C21.70039426 21.10819096 19.69076919 21.14948718 17 21 C17.99 21.66 18.98 22.32 20 23 C19.34 23.66 18.68 24.32 18 25 C17.62633887 26.99285937 17.29259485 28.99363529 17 31 C16.67 31.66 16.34 32.32 16 33 C14.68 33 13.36 33 12 33 C11.67 33.99 11.34 34.98 11 36 C9.00390625 37.82421875 9.00390625 37.82421875 6.5625 39.6875 C5.75941406 40.31011719 4.95632812 40.93273437 4.12890625 41.57421875 C2 43 2 43 0 43 C0 28.81 0 14.62 0 0 Z " fill="#4C090D" transform="translate(0,63)"/>
<path d="M0 0 C0.33 0 0.66 0 1 0 C1.66 4.95 2.32 9.9 3 15 C1.68 15 0.36 15 -1 15 C-0.62875 16.155 -0.2575 17.31 0.125 18.5 C0.4296875 20.69140625 0.4296875 20.69140625 0 23 C-3.6250309 27.01785744 -7.84806479 30.28268826 -13 32 C-13.33 32.66 -13.66 33.32 -14 34 C-14.6084375 33.52691406 -15.216875 33.05382812 -15.84375 32.56640625 C-23.81347282 26.55395359 -32.23703078 21.74981518 -41 17 C-41 12.05 -41 7.1 -41 2 C-38.03 2 -35.06 2 -32 2 C-32.66 2.66 -33.32 3.32 -34 4 C-34.6425235 6.06874034 -34.6425235 6.06874034 -35 8 C-34.236875 8.144375 -33.47375 8.28875 -32.6875 8.4375 C-30 9 -30 9 -27 10 C-25.00038436 10.03920815 -22.99950636 10.04443347 -21 10 C-21 11.65 -21 13.3 -21 15 C-19.68 15.33 -18.36 15.66 -17 16 C-17 16.66 -17 17.32 -17 18 C-15.35 18 -13.7 18 -12 18 C-12 19.65 -12 21.3 -12 23 C-10.68 23.33 -9.36 23.66 -8 24 C-8.66 22.35 -9.32 20.7 -10 19 C-8.68 18.67 -7.36 18.34 -6 18 C-6 17.34 -6 16.68 -6 16 C-5.34 16 -4.68 16 -4 16 C-4 14.35 -4 12.7 -4 11 C-3.01 10.67 -2.02 10.34 -1 10 C-1.020625 8.906875 -1.04125 7.81375 -1.0625 6.6875 C-1 3 -1 3 0 0 Z " fill="#E4BE3E" transform="translate(41,46)"/>
<path d="M0 0 C0.80566406 -0.00386719 1.61132812 -0.00773437 2.44140625 -0.01171875 C8.37142857 -0.00178571 8.37142857 -0.00178571 10.625 1.125 C10.57859375 1.80046875 10.5321875 2.4759375 10.484375 3.171875 C10.10632384 8.85904931 10.10632384 8.85904931 12.625 13.75 C13.285 14.20375 13.945 14.6575 14.625 15.125 C11.62186252 16.62656874 8.83432478 16.21781204 5.5 16.1875 C4.21867187 16.17847656 2.93734375 16.16945313 1.6171875 16.16015625 C0.62976563 16.14855469 -0.35765625 16.13695313 -1.375 16.125 C-1.375 16.785 -1.375 17.445 -1.375 18.125 C-3.87277285 19.58203416 -5.58563099 20.57661743 -8.375 21.125 C-10.61450572 20.40285612 -12.41988942 19.3854359 -14.44140625 18.1875 C-17.00772284 16.777322 -19.48460666 16.41403933 -22.375 16.125 C-22.31489582 14.18664034 -22.22608283 12.24915509 -22.125 10.3125 C-22.07859375 9.23355469 -22.0321875 8.15460937 -21.984375 7.04296875 C-21.375 4.125 -21.375 4.125 -19.828125 2.30078125 C-13.80819616 -0.58456681 -6.54903989 -0.03236758 0 0 Z " fill="#F7CDC0" transform="translate(70.375,37.875)"/>
<path d="M0 0 C0.66 0.33 1.32 0.66 2 1 C2 14.53 2 28.06 2 42 C-6.25 42 -14.5 42 -23 42 C-21.02 39.69 -19.04 37.38 -17 35 C-14.72736009 30.97418074 -13.03507396 27.24839754 -11.7109375 22.83984375 C-10.01503154 17.67419583 -7.52170197 13.13319243 -4.8125 8.4375 C-4.11737305 7.21063477 -4.11737305 7.21063477 -3.40820312 5.95898438 C-2.27911673 3.96853311 -1.14304645 1.98245616 0 0 Z " fill="#111F29" transform="translate(106,66)"/>
<path d="M0 0 C0.66 0.33 1.32 0.66 2 1 C2.50905655 7.10867857 1.23726349 10.84462355 -2 16 C-2.38736328 16.62914307 -2.77472656 17.25828613 -3.17382812 17.90649414 C-5.99880959 21.51980863 -8.06356599 22.85627901 -12.66186523 23.56201172 C-17.09313983 23.77634347 -21.50759284 23.61117595 -25.9375 23.4375 C-27.49537274 23.40234783 -29.05332167 23.37041566 -30.61132812 23.34179688 C-34.40944735 23.26505599 -38.20387948 23.1445022 -42 23 C-43.40457737 20.19084526 -43.24895157 18.11189466 -43 15 C-41.625 12.625 -41.625 12.625 -40 11 C-39.34 11 -38.68 11 -38 11 C-37.67 11.66 -37.34 12.32 -37 13 C-29.75523104 15.41492299 -21.86010767 14.16907148 -15 11 C-12.70422757 8.48593689 -12.70422757 8.48593689 -11 6 C-8.3125 5.3125 -8.3125 5.3125 -6 5 C-5.67 4.34 -5.34 3.68 -5 3 C-3.68352881 2.30062468 -2.34977849 1.63270867 -1 1 C-0.67 0.67 -0.34 0.34 0 0 Z " fill="#9B6B59" transform="translate(92,85)"/>
<path d="M0 0 C0.2475 0.639375 0.495 1.27875 0.75 1.9375 C1.79331795 4.16676943 1.79331795 4.16676943 3.9375 4.625 C4.618125 4.74875 5.29875 4.8725 6 5 C6.99 5.66 7.98 6.32 9 7 C8.34 8.65 7.68 10.3 7 12 C9.31 12 11.62 12 14 12 C14.33 9.36 14.66 6.72 15 4 C17 4 17 4 19.125 6 C20.053125 6.99 20.053125 6.99 21 8 C21 7.34 21 6.68 21 6 C20.34 5.67 19.68 5.34 19 5 C19.99 4.67 20.98 4.34 22 4 C23 6 24 8 25 10 C24.34 10.66 23.68 11.32 23 12 C22.34 11.34 21.68 10.68 21 10 C20.01 10.99 19.02 11.98 18 13 C17.34 12.67 16.68 12.34 16 12 C15.67 12.99 15.34 13.98 15 15 C13.35 15 11.7 15 10 15 C9.7525 15.598125 9.505 16.19625 9.25 16.8125 C6.99655191 20.75603415 4.61327467 21.80250477 0.3125 23.1875 C-5.71705904 24.52865425 -11.50290569 25.11997244 -17 22 C-17 21.34 -17 20.68 -17 20 C-17.99 20.33 -18.98 20.66 -20 21 C-19.6596875 19.3603125 -19.6596875 19.3603125 -19.3125 17.6875 C-18.59853617 14.09468727 -18.59853617 14.09468727 -20.4375 12.0625 C-20.953125 11.711875 -21.46875 11.36125 -22 11 C-19.69 11 -17.38 11 -15 11 C-15 11.66 -15 12.32 -15 13 C-14.34 12.67 -13.68 12.34 -13 12 C-10.3276379 11.86584528 -7.67749512 11.95681459 -5 12 C-5 12.66 -5 13.32 -5 14 C-3.02 13.67 -1.04 13.34 1 13 C1 12.34 1 11.68 1 11 C1.66 10.67 2.32 10.34 3 10 C3.33 9.01 3.66 8.02 4 7 C2.35 7 0.7 7 -1 7 C-0.67 4.69 -0.34 2.38 0 0 Z " fill="#CD9D94" transform="translate(71,76)"/>
<path d="M0 0 C0.8971875 0.9590625 0.8971875 0.9590625 1.8125 1.9375 C3.90810337 4.20310389 3.90810337 4.20310389 7 5 C9.82850129 8.39420155 10.94832728 10.36959285 11.3125 14.8125 C11 18 11 18 10 19 C9.92851801 20.35243917 9.91600546 21.70834367 9.9375 23.0625 C9.958125 24.361875 9.97875 25.66125 10 27 C5.67687119 27.17359665 1.35560755 27.30031009 -2.9699707 27.38452148 C-4.4397313 27.41963522 -5.90924888 27.46734162 -7.37817383 27.52807617 C-19.4990278 28.01652237 -19.4990278 28.01652237 -23.13916016 25.55126953 C-24.55078125 23.72265625 -24.55078125 23.72265625 -26 20 C-25.59057617 17.76733398 -25.59057617 17.76733398 -25 16 C-24.44570313 16.15597656 -23.89140625 16.31195313 -23.3203125 16.47265625 C-22.23363281 16.76462891 -22.23363281 16.76462891 -21.125 17.0625 C-20.40570312 17.25972656 -19.68640625 17.45695312 -18.9453125 17.66015625 C-16.92726407 18.21132607 -16.92726407 18.21132607 -15 17 C-15.33 18.32 -15.66 19.64 -16 21 C-15.01 20.67 -14.02 20.34 -13 20 C-12.34 21.32 -11.68 22.64 -11 24 C-7.05735118 22.68578373 -4.66043371 21.21086827 -2 18 C0.01902621 13.96194758 0.21557478 10.67095162 0.125 6.1875 C0.09792969 4.44533203 0.09792969 4.44533203 0.0703125 2.66796875 C0.04710938 1.78753906 0.02390625 0.90710938 0 0 Z " fill="#000007" transform="translate(40,81)"/>
<path d="M0 0 C2.475 0.495 2.475 0.495 5 1 C5 1.99 5 2.98 5 4 C5.66 4 6.32 4 7 4 C7.37125 4.8971875 7.37125 4.8971875 7.75 5.8125 C8.82707877 8.13611367 8.82707877 8.13611367 11.05371094 9.13989258 C13 11 13 11 13.45410156 14.5534668 C13.45346954 16.01887008 13.43094239 17.48437006 13.390625 18.94921875 C13.38496521 19.72183548 13.37930542 20.49445221 13.37347412 21.29048157 C13.35109327 23.75678629 13.30089703 26.22163492 13.25 28.6875 C13.22993706 30.36000505 13.21168592 32.03253289 13.1953125 33.70507812 C13.15122331 37.80394596 13.08218675 41.90172617 13 46 C12.34 46 11.68 46 11 46 C7.535 52.435 7.535 52.435 4 59 C3.505 57.515 3.505 57.515 3 56 C3.33 55.34 3.66 54.68 4 54 C3.34 54 2.68 54 2 54 C2 52.68 2 51.36 2 50 C2.66 50 3.32 50 4 50 C3.67 49.34 3.34 48.68 3 48 C2.01 48 1.02 48 0 48 C0.99 45.03 0.99 45.03 2 42 C4.475 41.505 4.475 41.505 7 41 C7.144375 39.7625 7.28875 38.525 7.4375 37.25 C7.68614363 35.11876886 7.97557135 33.09545963 8.5078125 31.015625 C10.50674087 22.82953738 8.50543965 16.99414081 4.5078125 9.76171875 C3.1185332 7.21710615 2.03318782 4.70397352 1 2 C0.67 1.34 0.34 0.68 0 0 Z " fill="#AA6B4F" transform="translate(95,21)"/>
<path d="M0 0 C0.66 0.33 1.32 0.66 2 1 C1 4 1 4 -1 6 C-0.34 6.33 0.32 6.66 1 7 C1 7.66 1 8.32 1 9 C2.32 9 3.64 9 5 9 C5.495 10.485 5.495 10.485 6 12 C5.34 12.66 4.68 13.32 4 14 C4.66 14.33 5.32 14.66 6 15 C5.67 15.99 5.34 16.98 5 18 C1.62537285 17.45276317 -0.08235 16.9451 -3 15 C-3 14.34 -3 13.68 -3 13 C-3.66 12.67 -4.32 12.34 -5 12 C-4.67 10.35 -4.34 8.7 -4 7 C-5.258125 7.12375 -6.51625 7.2475 -7.8125 7.375 C-8.52019531 7.44460937 -9.22789063 7.51421875 -9.95703125 7.5859375 C-12.29988142 7.92665391 -12.29988142 7.92665391 -15 10 C-14.34 10.33 -13.68 10.66 -13 11 C-12.95745644 12.99954746 -12.95919217 15.00041636 -13 17 C-14 18 -14 18 -16.28515625 18.09765625 C-17.65994141 18.08025391 -17.65994141 18.08025391 -19.0625 18.0625 C-19.98160156 18.05347656 -20.90070312 18.04445313 -21.84765625 18.03515625 C-22.55792969 18.02355469 -23.26820312 18.01195313 -24 18 C-24.33 16.68 -24.66 15.36 -25 14 C-25.99 14 -26.98 14 -28 14 C-27.67 12.68 -27.34 11.36 -27 10 C-25.68 10.66 -24.36 11.32 -23 12 C-22.67 11.67 -22.34 11.34 -22 11 C-22.66 10.67 -23.32 10.34 -24 10 C-24 9.34 -24 8.68 -24 8 C-22.68 7.67 -21.36 7.34 -20 7 C-20.66 6.67 -21.32 6.34 -22 6 C-21.67 5.01 -21.34 4.02 -21 3 C-19.02 3 -17.04 3 -15 3 C-15 2.34 -15 1.68 -15 1 C-9.25 2.875 -9.25 2.875 -7 4 C-4.6505947 3.39239518 -2.31470912 2.72870472 0 2 C0 1.34 0 0.68 0 0 Z " fill="#A18986" transform="translate(69,54)"/>
<path d="M0 0 C4.16428373 1.66571349 7.94388464 3.52856442 11.8125 5.75 C12.42689941 6.10126953 13.04129883 6.45253906 13.67431641 6.81445312 C18.381291 9.54809529 22.78622931 12.54523149 27 16 C26 19 26 19 24.375 20.25 C18.42810334 22.12796737 12.49360374 19.2167173 7 17 C7.66 16.67 8.32 16.34 9 16 C9 15.34 9 14.68 9 14 C5.02958963 13.77942165 3.76687864 14.11656068 0 16 C0 10.72 0 5.44 0 0 Z " fill="#B32325" transform="translate(0,63)"/>
<path d="M0 0 C0.33 0.66 0.66 1.32 1 2 C1.99 2 2.98 2 4 2 C4 2.66 4 3.32 4 4 C4.61488281 4.20496094 5.22976562 4.40992188 5.86328125 4.62109375 C10.93164063 6.31054688 10.93164063 6.31054688 16 8 C16 8.99 16 9.98 16 11 C16.62648438 11.09796875 17.25296875 11.1959375 17.8984375 11.296875 C18.71570313 11.44640625 19.53296875 11.5959375 20.375 11.75 C21.18710937 11.88921875 21.99921875 12.0284375 22.8359375 12.171875 C25.62121353 13.2377207 25.7584041 14.39264862 27 17 C30.56206661 17.81870185 30.56206661 17.81870185 34 18 C32.60746468 21.48133831 31.36823784 22.47886033 28 24 C27.67 24.66 27.34 25.32 27 26 C26.3915625 25.52691406 25.783125 25.05382812 25.15625 24.56640625 C17.18652718 18.55395359 8.76296922 13.74981518 0 9 C0 6.03 0 3.06 0 0 Z " fill="#CCA721" transform="translate(0,54)"/>
<path d="M0 0 C0.33 1.65 0.66 3.3 1 5 C3.97 5.33 6.94 5.66 10 6 C10 6.66 10 7.32 10 8 C10.763125 8.268125 11.52625 8.53625 12.3125 8.8125 C14.98678071 9.99415892 16.31681182 10.64353655 18 13 C18.6875 16.1875 18.6875 16.1875 19 19 C18.01 18.67 17.02 18.34 16 18 C15.66666667 16.66666667 15.33333333 15.33333333 15 14 C14.01 13.67 13.02 13.34 12 13 C12 12.34 12 11.68 12 11 C11.34 11 10.68 11 10 11 C10 10.34 10 9.68 10 9 C4.555 8.505 4.555 8.505 -1 8 C-1 7.01 -1 6.02 -1 5 C-2.32 5 -3.64 5 -5 5 C-4.01 6.485 -4.01 6.485 -3 8 C-3.99 8.66 -4.98 9.32 -6 10 C-6 9.34 -6 8.68 -6 8 C-10.35535069 9.16142685 -12.64619703 10.07699505 -15 14 C-15.625 12.125 -15.625 12.125 -16 10 C-15.34 9.34 -14.68 8.68 -14 8 C-15.65 8 -17.3 8 -19 8 C-19 9.98 -19 11.96 -19 14 C-19.99 14.495 -19.99 14.495 -21 15 C-21.66 14.34 -22.32 13.68 -23 13 C-23.66 13.66 -24.32 14.32 -25 15 C-25 14.34 -25 13.68 -25 13 C-25.66 12.67 -26.32 12.34 -27 12 C-26.34 12 -25.68 12 -25 12 C-24.34 9.03 -23.68 6.06 -23 3 C-21.86820313 2.86722656 -20.73640625 2.73445312 -19.5703125 2.59765625 C-18.08851821 2.4194658 -16.60674864 2.24106971 -15.125 2.0625 C-14.00544922 1.93198242 -14.00544922 1.93198242 -12.86328125 1.79882812 C-8.3240611 1.24676081 -4.55940318 -0.11998429 0 0 Z " fill="#1C0F08" transform="translate(80,11)"/>
<path d="M0 0 C1.65 0 3.3 0 5 0 C5 0.66 5 1.32 5 2 C6.32 2.33 7.64 2.66 9 3 C9 2.34 9 1.68 9 1 C9.99 1 10.98 1 12 1 C12 1.66 12 2.32 12 3 C12.680625 2.649375 13.36125 2.29875 14.0625 1.9375 C17.7087789 0.77379397 20.28489978 1.27154898 24 2 C24.33 3.65 24.66 5.3 25 7 C25.33 6.67 25.66 6.34 26 6 C27.98 6 29.96 6 32 6 C32 11.28 32 16.56 32 22 C30.02 20.68 28.04 19.36 26 18 C26 17.01 26 16.02 26 15 C25.34 15 24.68 15 24 15 C23.608125 14.566875 23.21625 14.13375 22.8125 13.6875 C20.1874619 11.24349901 17.32711134 10.3182894 14 9 C14 8.34 14 7.68 14 7 C12.88625 7.020625 11.7725 7.04125 10.625 7.0625 C7 7 7 7 5 6 C4.375 3.4375 4.375 3.4375 4 1 C2.68 0.67 1.36 0.34 0 0 Z " fill="#FDE176" transform="translate(76,10)"/>
<path d="M0 0 C0 7.26 0 14.52 0 22 C-4.62 22 -9.24 22 -14 22 C-14 21.01 -14 20.02 -14 19 C-14.66 19 -15.32 19 -16 19 C-15.67 17.35 -15.34 15.7 -15 14 C-14.34 14 -13.68 14 -13 14 C-12.773125 13.278125 -12.54625 12.55625 -12.3125 11.8125 C-10.59703275 8.13649875 -4.51821734 0 0 0 Z " fill="#274652" transform="translate(108,86)"/>
<path d="M0 0 C0.80566406 -0.00386719 1.61132812 -0.00773437 2.44140625 -0.01171875 C8.37142857 -0.00178571 8.37142857 -0.00178571 10.625 1.125 C10.57859375 1.80046875 10.5321875 2.4759375 10.484375 3.171875 C10.10632384 8.85904931 10.10632384 8.85904931 12.625 13.75 C13.285 14.20375 13.945 14.6575 14.625 15.125 C11.41048731 16.73225635 8.18887464 16.18248185 4.625 16.125 C4.76633499 14.35380197 4.91323208 12.58304713 5.0625 10.8125 C5.14371094 9.82636719 5.22492188 8.84023438 5.30859375 7.82421875 C5.625 5.125 5.625 5.125 6.625 2.125 C5.635 2.62 5.635 2.62 4.625 3.125 C1.20718746 3.25397406 -1.84204126 3.24343527 -5.1875 2.5 C-5.909375 2.37625 -6.63125 2.2525 -7.375 2.125 C-8.035 2.785 -8.695 3.445 -9.375 4.125 C-10.71561543 3.82228039 -12.04905895 3.48662029 -13.375 3.125 C-14.365 3.455 -15.355 3.785 -16.375 4.125 C-16.375 6.105 -16.375 8.085 -16.375 10.125 C-14.395 10.125 -12.415 10.125 -10.375 10.125 C-12.375 12.125 -12.375 12.125 -15.375 13.125 C-15.705 14.115 -16.035 15.105 -16.375 16.125 C-18.355 16.125 -20.335 16.125 -22.375 16.125 C-22.31489582 14.18664034 -22.22608283 12.24915509 -22.125 10.3125 C-22.07859375 9.23355469 -22.0321875 8.15460937 -21.984375 7.04296875 C-21.375 4.125 -21.375 4.125 -19.828125 2.30078125 C-13.80819616 -0.58456681 -6.54903989 -0.03236758 0 0 Z " fill="#DAAD9D" transform="translate(70.375,37.875)"/>
<path d="M0 0 C1.41655793 -0.0272415 2.83327045 -0.04650467 4.25 -0.0625 C5.43335937 -0.07990234 5.43335937 -0.07990234 6.640625 -0.09765625 C8.90691002 -0.00385306 10.8288895 0.36758937 13 1 C13 1.66 13 2.32 13 3 C11.68 3 10.36 3 9 3 C9.33 3.66 9.66 4.32 10 5 C10.039992 6.99960012 10.04346799 9.00047242 10 11 C10.66 11 11.32 11 12 11 C12.33 10.34 12.66 9.68 13 9 C13.33 9.99 13.66 10.98 14 12 C13.34 12 12.68 12 12 12 C12 13.32 12 14.64 12 16 C12.66 16 13.32 16 14 16 C13.745504 17.48206495 13.47088238 18.96068615 13.1875 20.4375 C13.03667969 21.26121094 12.88585937 22.08492187 12.73046875 22.93359375 C12.48941406 23.61550781 12.24835938 24.29742187 12 25 C11.01 25.33 10.02 25.66 9 26 C8.67 24.35 8.34 22.7 8 21 C7.34 21.33 6.68 21.66 6 22 C6.33 22.99 6.66 23.98 7 25 C5.68 24.34 4.36 23.68 3 23 C3.495 14.09 3.495 14.09 4 5 C2.68 4.67 1.36 4.34 0 4 C0 2.68 0 1.36 0 0 Z " fill="#AF7957" transform="translate(85,59)"/>
<path d="M0 0 C1.32 0.66 2.64 1.32 4 2 C3.53428232 6.75032037 2.85175998 10.12160643 0 14 C-0.99 14.495 -0.99 14.495 -2 15 C-0.02 15.66 1.96 16.32 4 17 C4 17.66 4 18.32 4 19 C-2.32258065 19.36476427 -2.32258065 19.36476427 -5.4375 17.6875 C-7 16 -7 16 -7 13 C-9.64 13.66 -12.28 14.32 -15 15 C-15.33 12.03 -15.66 9.06 -16 6 C-12.04 6 -8.08 6 -4 6 C-3.67 4.68 -3.34 3.36 -3 2 C-2.01 1.34 -1.02 0.68 0 0 Z " fill="#DDA494" transform="translate(60,67)"/>
<path d="M0 0 C-0.33120772 2.98086944 -0.7869924 4.7214516 -2.625 7.125 C-8.31253282 11.61515749 -13.42881416 12.4375812 -20.4375 12.1875 C-21.53481445 12.16719727 -21.53481445 12.16719727 -22.65429688 12.14648438 C-24.43652422 12.11153874 -26.21836573 12.05774805 -28 12 C-28.33 9.69 -28.66 7.38 -29 5 C-28.01 5.33 -27.02 5.66 -26 6 C-24.18945873 6.09398229 -22.37547219 6.12991987 -20.5625 6.125 C-19.14130859 6.12886719 -19.14130859 6.12886719 -17.69140625 6.1328125 C-15.29859541 6.01473475 -13.28663847 5.68112635 -11 5 C-11 4.34 -11 3.68 -11 3 C-9.73581754 2.30034557 -8.46334598 1.61565237 -7.1875 0.9375 C-6.47980469 0.55464844 -5.77210937 0.17179687 -5.04296875 -0.22265625 C-3 -1 -3 -1 0 0 Z " fill="#542113" transform="translate(85,96)"/>
<path d="M0 0 C0.66 0 1.32 0 2 0 C2 3.96 2 7.92 2 12 C1.34 11.67 0.68 11.34 0 11 C0 16.28 0 21.56 0 27 C-0.99 27.33 -1.98 27.66 -3 28 C-3.33 27.01 -3.66 26.02 -4 25 C-5.98 25 -7.96 25 -10 25 C-9.34 23.35 -8.68 21.7 -8 20 C-8.66 19.67 -9.32 19.34 -10 19 C-9.505 17.515 -9.505 17.515 -9 16 C-8.34 16.66 -7.68 17.32 -7 18 C-6.67 17.01 -6.34 16.02 -6 15 C-5.34 15 -4.68 15 -4 15 C-4.515625 13.96875 -5.03125 12.9375 -5.5625 11.875 C-7.13395026 8.26947626 -7.03110662 5.84321557 -6 2 C-4.7934375 1.7834375 -4.7934375 1.7834375 -3.5625 1.5625 C-1.07896294 1.25864751 -1.07896294 1.25864751 0 0 Z " fill="#144359" transform="translate(41,71)"/>
<path d="M0 0 C1.65 0 3.3 0 5 0 C4.25 5.75 4.25 5.75 2 8 C2 9.98 2 11.96 2 14 C-1.96 14 -5.92 14 -10 14 C-10.33 14.66 -10.66 15.32 -11 16 C-11.66 16 -12.32 16 -13 16 C-13.33 16.66 -13.66 17.32 -14 18 C-14.66 16.02 -15.32 14.04 -16 12 C-14.35 11.67 -12.7 11.34 -11 11 C-11 10.01 -11 9.02 -11 8 C-10.34 8 -9.68 8 -9 8 C-8.67 6.68 -8.34 5.36 -8 4 C-7.01 4 -6.02 4 -5 4 C-4.01 3.34 -3.02 2.68 -2 2 C-1.67 3.32 -1.34 4.64 -1 6 C-0.67 4.02 -0.34 2.04 0 0 Z " fill="#040000" transform="translate(61,19)"/>
<path d="M0 0 C0.33 1.65 0.66 3.3 1 5 C1.99 5.33 2.98 5.66 4 6 C3.67 7.65 3.34 9.3 3 11 C1.02 11 -0.96 11 -3 11 C-3 11.66 -3 12.32 -3 13 C-7.40414508 15.37823834 -7.40414508 15.37823834 -10 16 C-13.4375 14.6875 -13.4375 14.6875 -16 13 C-16 12.01 -16 11.02 -16 10 C-13.36 10 -10.72 10 -8 10 C-8 8.68 -8 7.36 -8 6 C-7.01 5.67 -6.02 5.34 -5 5 C-5.66 4.34 -6.32 3.68 -7 3 C-2.25 0 -2.25 0 0 0 Z " fill="#FBD2CA" transform="translate(72,43)"/>
<path d="M0 0 C2.2421875 0.1015625 2.2421875 0.1015625 4.875 0.625 C5.73867187 0.78226563 6.60234375 0.93953125 7.4921875 1.1015625 C10.66184026 2.23710788 11.98171533 3.29276039 14 6 C14.73050812 8.62588055 15.27347618 11.01793535 15.6875 13.6875 C16.08638153 18.2127824 16.08638153 18.2127824 18 22 C18.04063832 23.66617115 18.042721 25.33388095 18 27 C17.71125 26.401875 17.4225 25.80375 17.125 25.1875 C15.95257974 22.80672208 15.95257974 22.80672208 14 20 C13.18369886 16.36724626 12.5346879 12.71957007 11.87890625 9.0546875 C11.58886719 8.04664063 11.29882812 7.03859375 11 6 C7.8031088 4.9343696 5.75277415 4.94999167 2.40625 5.0859375 C0.735625 5.15167969 0.735625 5.15167969 -0.96875 5.21875 C-2.1340625 5.2703125 -3.299375 5.321875 -4.5 5.375 C-5.634375 5.41882812 -6.76875 5.46265625 -7.9375 5.5078125 C-14.9830792 5.79868504 -21.98477429 6.28535491 -29 7 C-27.7000354 4.40007079 -26.67920641 4.06985375 -24 3 C-21.3359375 2.5859375 -21.3359375 2.5859375 -18.375 2.375 C-16.7971875 2.26091797 -16.7971875 2.26091797 -15.1875 2.14453125 C-11.43449853 1.97435839 -7.71389164 2.00833772 -3.9609375 2.16015625 C-1.76202811 2.1934948 -1.76202811 2.1934948 0 0 Z " fill="#855C49" transform="translate(77,32)"/>
<path d="M0 0 C0.99 0.33 1.98 0.66 3 1 C2.67 2.65 2.34 4.3 2 6 C0.68 6 -0.64 6 -2 6 C-1.2495276 9.90245646 0.08303419 12.16606837 2 16 C-4.27 16 -10.54 16 -17 16 C-17 15.34 -17 14.68 -17 14 C-15.02866014 12.62464661 -13.02318078 11.29788956 -11 10 C-7.44721026 7.46421237 -7.44721026 7.46421237 -5 4 C-3.68 4 -2.36 4 -1 4 C-0.67 2.68 -0.34 1.36 0 0 Z " fill="#65757E" transform="translate(17,92)"/>
<path d="M0 0 C2.475 0.495 2.475 0.495 5 1 C5 1.99 5 2.98 5 4 C5.66 4 6.32 4 7 4 C7.37125 4.8971875 7.37125 4.8971875 7.75 5.8125 C8.84499685 8.12758594 8.84499685 8.12758594 11.05371094 9.2902832 C13 11 13 11 13.45410156 13.54370117 C13.4331543 14.53345947 13.41220703 15.52321777 13.390625 16.54296875 C13.37773438 17.61611328 13.36484375 18.68925781 13.3515625 19.79492188 C13.31804687 20.91447266 13.28453125 22.03402344 13.25 23.1875 C13.23195313 24.31865234 13.21390625 25.44980469 13.1953125 26.61523438 C13.14812652 29.41100376 13.08230595 32.20507972 13 35 C12.34 35 11.68 35 11 35 C9.60114324 32.20228649 9.88492441 29.74959583 9.8125 26.625 C9.40417519 20.00333271 7.71270799 15.36084143 4.47265625 9.62109375 C3.0724581 7.12896389 2.01656782 4.66678105 1 2 C0.67 1.34 0.34 0.68 0 0 Z " fill="#CEAD3A" transform="translate(95,21)"/>
<path d="M0 0 C0.33 0.99 0.66 1.98 1 3 C4.63 3 8.26 3 12 3 C12 3.66 12 4.32 12 5 C8.04 5 4.08 5 0 5 C0.66 7.64 1.32 10.28 2 13 C5.465 12.505 5.465 12.505 9 12 C9 12.99 9 13.98 9 15 C9.99 15.33 10.98 15.66 12 16 C11.01 16.66 10.02 17.32 9 18 C9.66 18.33 10.32 18.66 11 19 C9.35 19.33 7.7 19.66 6 20 C6.99 20.99 7.98 21.98 9 23 C8.34 23.99 7.68 24.98 7 26 C3 20.25 3 20.25 3 18 C1.68 17.67 0.36 17.34 -1 17 C-1 12.38 -1 7.76 -1 3 C-2.32 3.99 -3.64 4.98 -5 6 C-5.99 5.34 -6.98 4.68 -8 4 C-3.375 0 -3.375 0 0 0 Z " fill="#A27F74" transform="translate(44,68)"/>
<path d="M0 0 C1.32 0 2.64 0 4 0 C4 0.99 4 1.98 4 3 C5.2375 3.0825 6.475 3.165 7.75 3.25 C11.84540706 3.73138995 13.14209604 5.04683257 16 8 C19.167832 8.33448259 19.167832 8.33448259 22 8 C22 8.99 22 9.98 22 11 C23.32 11.33 24.64 11.66 26 12 C26 12.66 26 13.32 26 14 C27.32 14.33 28.64 14.66 30 15 C30 15.99 30 16.98 30 18 C29.34 18 28.68 18 28 18 C27.67 18.66 27.34 19.32 27 20 C26.3915625 19.52691406 25.783125 19.05382812 25.15625 18.56640625 C17.18652718 12.55395359 8.76296922 7.74981518 0 3 C0 2.01 0 1.02 0 0 Z " fill="#B88A0C" transform="translate(0,60)"/>
<path d="M0 0 C0.33 0 0.66 0 1 0 C1.66 4.95 2.32 9.9 3 15 C1.68 15 0.36 15 -1 15 C-0.731875 16.2375 -0.46375 17.475 -0.1875 18.75 C0.09375 20.94921875 0.09375 20.94921875 0 23 C-2.1875 25.5625 -2.1875 25.5625 -5 27 C-7.3125 26.75 -7.3125 26.75 -9 26 C-9 23.33333333 -9 20.66666667 -9 18 C-8.01 18 -7.02 18 -6 18 C-6 17.34 -6 16.68 -6 16 C-5.34 16 -4.68 16 -4 16 C-4 14.35 -4 12.7 -4 11 C-3.01 10.67 -2.02 10.34 -1 10 C-1.020625 8.906875 -1.04125 7.81375 -1.0625 6.6875 C-1 3 -1 3 0 0 Z " fill="#EFD86F" transform="translate(41,46)"/>
<path d="M0 0 C0.33 1.65 0.66 3.3 1 5 C3.97 5.33 6.94 5.66 10 6 C10 6.66 10 7.32 10 8 C10.763125 8.268125 11.52625 8.53625 12.3125 8.8125 C14.98678071 9.99415892 16.31681182 10.64353655 18 13 C18.6875 16.1875 18.6875 16.1875 19 19 C18.01 18.67 17.02 18.34 16 18 C15.66666667 16.66666667 15.33333333 15.33333333 15 14 C14.01 13.67 13.02 13.34 12 13 C12 12.34 12 11.68 12 11 C11.34 11 10.68 11 10 11 C10 10.34 10 9.68 10 9 C4.555 8.505 4.555 8.505 -1 8 C-1 7.01 -1 6.02 -1 5 C-1.66 5 -2.32 5 -3 5 C-3 4.34 -3 3.68 -3 3 C-9.28908482 3.52480001 -9.28908482 3.52480001 -15 6 C-15 5.01 -15 4.02 -15 3 C-15.66 3 -16.32 3 -17 3 C-17 3.66 -17 4.32 -17 5 C-19.97 4.505 -19.97 4.505 -23 4 C-19.61929229 1.98300772 -16.77621818 1.66275461 -12.875 1.4375 C-8.32304341 1.16482778 -4.53090641 -0.11923438 0 0 Z " fill="#523309" transform="translate(80,11)"/>
<path d="M0 0 C0.66 0.33 1.32 0.66 2 1 C1 4 1 4 -1 6 C-0.34 6.33 0.32 6.66 1 7 C1 7.66 1 8.32 1 9 C2.32 9 3.64 9 5 9 C5.33 9.99 5.66 10.98 6 12 C5.34 12.66 4.68 13.32 4 14 C4.66 14.33 5.32 14.66 6 15 C5.67 15.99 5.34 16.98 5 18 C1.62537285 17.45276317 -0.08235 16.9451 -3 15 C-3 14.34 -3 13.68 -3 13 C-3.66 12.67 -4.32 12.34 -5 12 C-4.67 10.35 -4.34 8.7 -4 7 C-6.31 7.33 -8.62 7.66 -11 8 C-11.33 6.35 -11.66 4.7 -12 3 C-11.319375 3.20625 -10.63875 3.4125 -9.9375 3.625 C-6.21166669 4.10063829 -3.53007446 3.17669149 0 2 C0 1.34 0 0.68 0 0 Z " fill="#A89DA8" transform="translate(69,54)"/>
<path d="M0 0 C1.21236328 0.04060547 1.21236328 0.04060547 2.44921875 0.08203125 C3.06410156 0.11683594 3.67898437 0.15164062 4.3125 0.1875 C4.23 1.1775 4.1475 2.1675 4.0625 3.1875 C4.02969621 7.22236558 5.45342644 9.94605285 7.4375 13.390625 C8.3125 15.1875 8.3125 15.1875 8.3125 18.1875 C6.0025 18.1875 3.6925 18.1875 1.3125 18.1875 C1.3125 18.8475 1.3125 19.5075 1.3125 20.1875 C0.6525 19.8575 -0.0075 19.5275 -0.6875 19.1875 C-0.171875 18.135625 0.34375 17.08375 0.875 16 C2.30938183 12.70226233 2.47702107 10.6810632 1.3125 7.1875 C-1.16016765 7.53194881 -1.16016765 7.53194881 -3.6875 8.1875 C-4.0175 8.8475 -4.3475 9.5075 -4.6875 10.1875 C-4.6875 8.2075 -4.6875 6.2275 -4.6875 4.1875 C-5.6775 3.8575 -6.6675 3.5275 -7.6875 3.1875 C-5.26849268 0.20484049 -3.789448 -0.16475861 0 0 Z " fill="#BB8A7E" transform="translate(60.6875,60.8125)"/>
<path d="M0 0 C2.375 0.25 2.375 0.25 5 1 C6.83425979 3.853293 7.32980464 6.40445264 7.625 9.75 C7.69976562 10.54921875 7.77453125 11.3484375 7.8515625 12.171875 C7.92503906 13.07679687 7.92503906 13.07679687 8 14 C5 15 5 15 2 15 C-0.1875 13.5 -0.1875 13.5 -2 11 C-2.71299677 6.73060968 -2.44849145 3.67273717 0 0 Z " fill="#C79379" transform="translate(82,38)"/>
<path d="M0 0 C0.68320313 0.26425781 1.36640625 0.52851562 2.0703125 0.80078125 C3.875 1.6875 3.875 1.6875 5.875 3.6875 C5.56847955 6.6300963 5.20228846 9.03292308 3.875 11.6875 C-0.58283133 12.04894578 -0.58283133 12.04894578 -2.8125 10.5625 C-4.53887924 8.09624394 -5.23046159 5.5500229 -6.125 2.6875 C-6.785 1.6975 -7.445 0.7075 -8.125 -0.3125 C-4.89769804 -1.39067935 -3.14373669 -1.26108069 0 0 Z " fill="#A51142" transform="translate(12.125,84.3125)"/>
<path d="M0 0 C2 0 2 0 4.125 2 C4.74375 2.66 5.3625 3.32 6 4 C6 3.34 6 2.68 6 2 C5.34 1.67 4.68 1.34 4 1 C4.99 0.67 5.98 0.34 7 0 C8 2 9 4 10 6 C9.34 6.66 8.68 7.32 8 8 C7.34 7.34 6.68 6.68 6 6 C5.01 6.99 4.02 7.98 3 9 C2.34 8.67 1.68 8.34 1 8 C0.67 8.99 0.34 9.98 0 11 C-1.65 11 -3.3 11 -5 11 C-5.2475 11.598125 -5.495 12.19625 -5.75 12.8125 C-7.19482573 15.34094503 -8.48280545 16.55070617 -11 18 C-11.99 17.67 -12.98 17.34 -14 17 C-14 16.34 -14 15.68 -14 15 C-14.66 14.34 -15.32 13.68 -16 13 C-13.36 13 -10.72 13 -8 13 C-7.67 11.68 -7.34 10.36 -7 9 C-5.02 8.67 -3.04 8.34 -1 8 C-0.67 5.36 -0.34 2.72 0 0 Z " fill="#BF8468" transform="translate(86,80)"/>
<path d="M0 0 C4.16312499 1.53667137 7.97347617 3.54555646 11.8125 5.75 C12.42689941 6.10126953 13.04129883 6.45253906 13.67431641 6.81445312 C18.381291 9.54809529 22.78622931 12.54523149 27 16 C26.67 16.99 26.34 17.98 26 19 C24.68 18.67 23.36 18.34 22 18 C22 17.34 22 16.68 22 16 C21.42926758 15.71914551 20.85853516 15.43829102 20.27050781 15.14892578 C18.0401098 14.02029642 15.85542736 12.8337381 13.671875 11.6171875 C12.87265625 11.17246094 12.0734375 10.72773437 11.25 10.26953125 C10.425 9.80933594 9.6 9.34914063 8.75 8.875 C7.90953125 8.40707031 7.0690625 7.93914062 6.203125 7.45703125 C4.13498765 6.30545477 2.06729594 5.15308609 0 4 C0 2.68 0 1.36 0 0 Z " fill="#630A00" transform="translate(0,63)"/>
<path d="M0 0 C0.598125 0.309375 1.19625 0.61875 1.8125 0.9375 C4.08956772 2.10209704 4.08956772 2.10209704 7 3 C7.33 2.34 7.66 1.68 8 1 C8.99 1.99 9.98 2.98 11 4 C9.80230322 7.59309034 8.5323211 8.42093253 5.5625 10.6875 C4.35787109 11.62142578 4.35787109 11.62142578 3.12890625 12.57421875 C1 14 1 14 -1 14 C-1.02694851 12.04174127 -1.04637218 10.08337774 -1.0625 8.125 C-1.07410156 7.03445312 -1.08570312 5.94390625 -1.09765625 4.8203125 C-1 2 -1 2 0 0 Z " fill="#410407" transform="translate(1,92)"/>
<path d="M0 0 C0.2475 0.639375 0.495 1.27875 0.75 1.9375 C1.79331795 4.16676943 1.79331795 4.16676943 3.9375 4.625 C4.618125 4.74875 5.29875 4.8725 6 5 C6.99 5.66 7.98 6.32 9 7 C8.34 8.65 7.68 10.3 7 12 C5.35 12 3.7 12 2 12 C2 12.66 2 13.32 2 14 C-3.20727879 16.65677489 -6.1091273 17.3860877 -12 16 C-12.66 15.67 -13.32 15.34 -14 15 C-13.67 14.01 -13.34 13.02 -13 12 C-10.36 12 -7.72 12 -5 12 C-5 12.66 -5 13.32 -5 14 C-3.02 13.67 -1.04 13.34 1 13 C1 12.34 1 11.68 1 11 C1.66 10.67 2.32 10.34 3 10 C3.33 9.01 3.66 8.02 4 7 C2.35 7 0.7 7 -1 7 C-0.67 4.69 -0.34 2.38 0 0 Z " fill="#B07B6A" transform="translate(71,76)"/>
<path d="M0 0 C1.41655793 -0.0272415 2.83327045 -0.04650467 4.25 -0.0625 C5.43335937 -0.07990234 5.43335937 -0.07990234 6.640625 -0.09765625 C8.90691002 -0.00385306 10.8288895 0.36758937 13 1 C13 1.66 13 2.32 13 3 C11.68 3 10.36 3 9 3 C9.04640625 3.58007812 9.0928125 4.16015625 9.140625 4.7578125 C9.40435405 10.46566274 8.71255226 13.41390603 5 18 C4.34 18.99 3.68 19.98 3 21 C3.33 15.72 3.66 10.44 4 5 C2.68 4.67 1.36 4.34 0 4 C0 2.68 0 1.36 0 0 Z " fill="#BA845F" transform="translate(85,59)"/>
<path d="M0 0 C0.66 0.33 1.32 0.66 2 1 C2 5.95 2 10.9 2 16 C-0.31 16.66 -2.62 17.32 -5 18 C-5.33 17.01 -5.66 16.02 -6 15 C-5.67 14.34 -5.34 13.68 -5 13 C-5.66 12.67 -6.32 12.34 -7 12 C-4.69 8.04 -2.38 4.08 0 0 Z " fill="#1E2326" transform="translate(106,66)"/>
<path d="M0 0 C0.66 1.32 1.32 2.64 2 4 C1.30132812 3.98839844 0.60265625 3.97679687 -0.1171875 3.96484375 C-1.02726562 3.95582031 -1.93734375 3.94679687 -2.875 3.9375 C-3.77992187 3.92589844 -4.68484375 3.91429687 -5.6171875 3.90234375 C-8.0168585 3.83750743 -8.0168585 3.83750743 -10 5 C-10.65213292 7.02463255 -10.65213292 7.02463255 -11 9 C-9.3603125 8.938125 -9.3603125 8.938125 -7.6875 8.875 C-4 9 -4 9 -1 11 C-1.33 11.99 -1.66 12.98 -2 14 C-4.97 13.505 -4.97 13.505 -8 13 C-8.33 12.01 -8.66 11.02 -9 10 C-10.98 10.33 -12.96 10.66 -15 11 C-14.34 10.67 -13.68 10.34 -13 10 C-13 9.34 -13 8.68 -13 8 C-13.99 7.67 -14.98 7.34 -16 7 C-15.67 6.34 -15.34 5.68 -15 5 C-14.34 5 -13.68 5 -13 5 C-12.67 3.68 -12.34 2.36 -12 1 C-7.915021 0.45533613 -4.1274515 0 0 0 Z " fill="#918089" transform="translate(83,53)"/>
<path d="M0 0 C0.33 0 0.66 0 1 0 C0.74574782 7.11906099 -1.39773801 10.67973805 -6 16 C-6.86625 17.2375 -6.86625 17.2375 -7.75 18.5 C-11.48610045 20.99073364 -15.6438771 20.29927562 -20 20 C-17.09466352 17.7840654 -14.13281899 15.87969139 -11 14 C-8.02803626 11.92863134 -5.39039655 9.73188177 -3 7 C-3 6.01 -3 5.02 -3 4 C-1.5625 1.8125 -1.5625 1.8125 0 0 Z " fill="#9EAAAD" transform="translate(93,88)"/>
<path d="M0 0 C0.55429688 0.15597656 1.10859375 0.31195313 1.6796875 0.47265625 C2.76636719 0.76462891 2.76636719 0.76462891 3.875 1.0625 C4.95394531 1.35833984 4.95394531 1.35833984 6.0546875 1.66015625 C8.07273593 2.21132607 8.07273593 2.21132607 10 1 C9.67 2.32 9.34 3.64 9 5 C9.66 5.33 10.32 5.66 11 6 C11.625 8.0625 11.625 8.0625 12 10 C9.03505913 11.48247043 7.28607933 11.51546343 4 11 C1.79371892 8.96170986 0.13775092 6.78494255 -1 4 C-0.62890625 1.765625 -0.62890625 1.765625 0 0 Z " fill="#041825" transform="translate(15,97)"/>
<path d="M0 0 C0.33 0.66 0.66 1.32 1 2 C3.01669827 3.13350534 3.01669827 3.13350534 5 4 C4.01 5.485 4.01 5.485 3 7 C3 6.34 3 5.68 3 5 C2.34 5 1.68 5 1 5 C1 7.31 1 9.62 1 12 C-3.95 12 -8.9 12 -14 12 C-13.34 11.67 -12.68 11.34 -12 11 C-12.66 9.68 -13.32 8.36 -14 7 C-13.34 6.34 -12.68 5.68 -12 5 C-11.34 6.32 -10.68 7.64 -10 9 C-6.06863911 7.68954637 -3.68793173 6.16791954 -1 3 C-0.67 2.01 -0.34 1.02 0 0 Z " fill="#000B1B" transform="translate(39,96)"/>
<path d="M0 0 C2.97 0.495 2.97 0.495 6 1 C5.67 2.32 5.34 3.64 5 5 C3.02 5.33 1.04 5.66 -1 6 C-1 7.32 -1 8.64 -1 10 C-3.31 10.66 -5.62 11.32 -8 12 C-8.309375 11.21625 -8.61875 10.4325 -8.9375 9.625 C-9.92875038 7.07669872 -9.92875038 7.07669872 -11 5 C-7.37 4.01 -3.74 3.02 0 2 C0 1.34 0 0.68 0 0 Z " fill="#C99482" transform="translate(73,88)"/>
<path d="M0 0 C1.307476 2.614952 1.54752844 5.11549381 2 8 C2.32635698 9.66804677 2.65725594 11.33524314 3 13 C2.34 13 1.68 13 1 13 C0.67 14.32 0.34 15.64 0 17 C-6.87489243 11.05090355 -6.87489243 11.05090355 -7.3125 7.375 C-5.44629215 3.99805246 -3.09062497 2.30152923 0 0 Z " fill="#325F6F" transform="translate(34,73)"/>
<path d="M0 0 C0.33 1.32 0.66 2.64 1 4 C0.34 4 -0.32 4 -1 4 C-1.061875 4.61875 -1.12375 5.2375 -1.1875 5.875 C-2 8 -2 8 -4.5625 9.25 C-5.366875 9.4975 -6.17125 9.745 -7 10 C-7 10.99 -7 11.98 -7 13 C-7.66 13 -8.32 13 -9 13 C-9.77321882 15.98241547 -10.41196203 18.97580475 -11 22 C-11.66 22 -12.32 22 -13 22 C-13 21.01 -13 20.02 -13 19 C-13.66 19 -14.32 19 -15 19 C-14.67 17.35 -14.34 15.7 -14 14 C-13.34 14 -12.68 14 -12 14 C-11.773125 13.278125 -11.54625 12.55625 -11.3125 11.8125 C-8.90000858 6.64287554 -4.44154562 3.42633519 0 0 Z " fill="#1C3944" transform="translate(107,86)"/>
<path d="M0 0 C2.97 0.495 2.97 0.495 6 1 C6.33 5.95 6.66 10.9 7 16 C5.68 15.34 4.36 14.68 3 14 C3 13.34 3 12.68 3 12 C2.34 12 1.68 12 1 12 C0.67 10.02 0.34 8.04 0 6 C-0.99 6.495 -0.99 6.495 -2 7 C-2 5.35 -2 3.7 -2 2 C-1.34 2 -0.68 2 0 2 C0 1.34 0 0.68 0 0 Z " fill="#FEE470" transform="translate(34,28)"/>
<path d="M0 0 C4.48052165 1.34348475 8.28288819 3.13141124 12.3125 5.5 C13.88451172 6.41265625 13.88451172 6.41265625 15.48828125 7.34375 C18 9 18 9 19 11 C16.41269226 10.52086894 14.8072651 9.87645199 12.5625 8.4375 C9.74667622 6.85789154 8.17038287 6.7282529 5 7 C4.731875 7.639375 4.46375 8.27875 4.1875 8.9375 C3 11 3 11 0 12 C0 8.04 0 4.08 0 0 Z " fill="#A11E1A" transform="translate(0,67)"/>
<path d="M0 0 C0.66 0 1.32 0 2 0 C5.12940055 3.97193147 5.29162929 7.04230204 5 12 C2.69 12 0.38 12 -2 12 C-3.40457737 9.19084526 -3.24895157 7.11189466 -3 4 C-1.625 1.625 -1.625 1.625 0 0 Z " fill="#2C4668" transform="translate(52,96)"/>
<path d="M0 0 C4.62 0 9.24 0 14 0 C14 1.98 14 3.96 14 6 C10.04 6 6.08 6 2 6 C1.34 4.02 0.68 2.04 0 0 Z " fill="#F1BDB3" transform="translate(70,73)"/>
<path d="M0 0 C2 1 2 1 2.78125 2.92578125 C3.0184375 3.71339844 3.255625 4.50101563 3.5 5.3125 C4.42964861 8.36922506 5.3128269 11.27039495 7 14 C7.99 14.33 8.98 14.66 10 15 C10 16.32 10 17.64 10 19 C8.35 19.33 6.7 19.66 5 20 C4.67 21.98 4.34 23.96 4 26 C3.67 26 3.34 26 3 26 C2.67 23.69 2.34 21.38 2 19 C3.32 19 4.64 19 6 19 C6 18.34 6 17.68 6 17 C4.68 16.67 3.36 16.34 2 16 C2.04125 15.29875 2.0825 14.5975 2.125 13.875 C2.12877553 10.92845804 2.12877553 10.92845804 1 8 C0.03438636 5.10315908 -0.1776563 3.02015711 0 0 Z " fill="#380B02" transform="translate(92,43)"/>
<path d="M0 0 C0.66 0 1.32 0 2 0 C1.125 5.75 1.125 5.75 0 8 C-3.0625 8.625 -3.0625 8.625 -6 9 C-6 9.99 -6 10.98 -6 12 C-8.64 12 -11.28 12 -14 12 C-12.75 10 -12.75 10 -11 8 C-9.68 8 -8.36 8 -7 8 C-7 6.68 -7 5.36 -7 4 C-5.5459375 3.2884375 -5.5459375 3.2884375 -4.0625 2.5625 C-1.19522563 1.29806053 -1.19522563 1.29806053 0 0 Z " fill="#675427" transform="translate(55,15)"/>
<path d="M0 0 C0.309375 0.639375 0.61875 1.27875 0.9375 1.9375 C1.8345163 3.93610821 1.8345163 3.93610821 3 5 C4.74738903 13.49757681 5.29564612 21.42072167 4 30 C-0.98087358 21.27300722 -0.28656993 9.7274571 0 0 Z " fill="#41210D" transform="translate(40,27)"/>
<path d="M0 0 C2.76276177 0.52268466 5.3260876 1.10869587 8 2 C9.99961564 2.03920815 12.00049364 2.04443347 14 2 C14 3.65 14 5.3 14 7 C15.32 7.33 16.64 7.66 18 8 C18 8.66 18 9.32 18 10 C19.65 10 21.3 10 23 10 C23 11.65 23 13.3 23 15 C22.34 14.67 21.68 14.34 21 14 C21 13.34 21 12.68 21 12 C20.38125 11.87625 19.7625 11.7525 19.125 11.625 C17 11 17 11 15 9 C13.3364521 8.32558869 11.66933058 7.6599679 10 7 C8.33333333 6 6.66666667 5 5 4 C3.34630643 3.30177383 1.68272986 2.62501395 0 2 C0 1.34 0 0.68 0 0 Z " fill="#F0CE52" transform="translate(6,54)"/>
<path d="M0 0 C1.79258558 0.08693141 3.58415144 0.19510504 5.375 0.3125 C6.87160156 0.39951172 6.87160156 0.39951172 8.3984375 0.48828125 C9.25695312 0.65714844 10.11546875 0.82601562 11 1 C13 4 13 4 12.75 5.9375 C11.97936717 8.05674028 11.0643413 10.01322958 10 12 C8.68 12 7.36 12 6 12 C6 11.01 6 10.02 6 9 C6.66 9 7.32 9 8 9 C8 7.68 8 6.36 8 5 C5.36 4.34 2.72 3.68 0 3 C0 2.01 0 1.02 0 0 Z " fill="#B6A6A7" transform="translate(73,59)"/>
<path d="M0 0 C0.66 1.32 1.32 2.64 2 4 C2.33 3.67 2.66 3.34 3 3 C5.33297433 2.95907063 7.66705225 2.95758277 10 3 C10 3.66 10 4.32 10 5 C9.030625 5.12375 8.06125 5.2475 7.0625 5.375 C5.5465625 5.684375 5.5465625 5.684375 4 6 C3.67 6.66 3.34 7.32 3 8 C3.99 8.33 4.98 8.66 6 9 C4.35 9.33 2.7 9.66 1 10 C1 10.66 1 11.32 1 12 C1.99 12.33 2.98 12.66 4 13 C3.01 13.66 2.02 14.32 1 15 C0.67 14.34 0.34 13.68 0 13 C-1.32 13 -2.64 13 -4 13 C-4 11.68 -4 10.36 -4 9 C-2.68 9 -1.36 9 0 9 C-0.185625 8.443125 -0.37125 7.88625 -0.5625 7.3125 C-1.07551165 4.600867 -0.6640724 2.65628961 0 0 Z " fill="#AA846F" transform="translate(44,52)"/>
<path d="M0 0 C2.47193291 2.96631949 4.25618453 5.51236907 6 9 C0.39 9 -5.22 9 -11 9 C-5.375 4.5 -5.375 4.5 0 4 C0 2.68 0 1.36 0 0 Z " fill="#235362" transform="translate(13,99)"/>
<path d="M0 0 C1.2065625 0.0309375 1.2065625 0.0309375 2.4375 0.0625 C2.7675 1.7125 3.0975 3.3625 3.4375 5.0625 C1.4575 5.0625 -0.5225 5.0625 -2.5625 5.0625 C-1.30640448 10.08688208 0.31225036 12.02284237 4.4375 15.0625 C4.4375 15.7225 4.4375 16.3825 4.4375 17.0625 C1.47574877 16.44972388 0.05691217 15.80877478 -2.5625 14.0625 C-2.8925 14.7225 -3.2225 15.3825 -3.5625 16.0625 C-3.58935095 13.58326199 -3.60926547 11.1043116 -3.625 8.625 C-3.63756836 7.56442383 -3.63756836 7.56442383 -3.65039062 6.48242188 C-3.65903588 4.67556441 -3.61470011 2.86862397 -3.5625 1.0625 C-2.5625 0.0625 -2.5625 0.0625 0 0 Z " fill="#560003" transform="translate(3.5625,77.9375)"/>
<path d="M0 0 C0.66 0.33 1.32 0.66 2 1 C1.67 1.66 1.34 2.32 1 3 C0.34 3 -0.32 3 -1 3 C-1.33 4.65 -1.66 6.3 -2 8 C-1.34 8 -0.68 8 0 8 C0 8.99 0 9.98 0 11 C-3.63 11 -7.26 11 -11 11 C-9.50260417 9.27473958 -8.00520833 7.54947917 -6.5078125 5.82421875 C-4.8359553 3.86501788 -4.8359553 3.86501788 -3 1 C-2.01 0.67 -1.02 0.34 0 0 Z " fill="#092430" transform="translate(94,97)"/>
<path d="M0 0 C0.66 0 1.32 0 2 0 C2 3.96 2 7.92 2 12 C1.34 11.67 0.68 11.34 0 11 C-0.33 12.98 -0.66 14.96 -1 17 C-1.66 16.67 -2.32 16.34 -3 16 C-3 12.04 -3 8.08 -3 4 C-3.66 3.67 -4.32 3.34 -5 3 C-5 5.31 -5 7.62 -5 10 C-5.66 9.34 -6.32 8.68 -7 8 C-6.625 4.875 -6.625 4.875 -6 2 C-4.7934375 1.7834375 -4.7934375 1.7834375 -3.5625 1.5625 C-1.07896294 1.25864751 -1.07896294 1.25864751 0 0 Z " fill="#2A3840" transform="translate(41,71)"/>
<path d="M0 0 C2 3.75 2 3.75 2 6 C2.66 6 3.32 6 4 6 C4 9.63 4 13.26 4 17 C3.01 17 2.02 17 1 17 C0.67 16.01 0.34 15.02 0 14 C-0.66 13.67 -1.32 13.34 -2 13 C-1.85769192 11.58297487 -1.71099254 10.1663904 -1.5625 8.75 C-1.48128906 7.96109375 -1.40007812 7.1721875 -1.31640625 6.359375 C-1.02365007 4.17635361 -0.57935581 2.1226818 0 0 Z " fill="#BD9C2B" transform="translate(104,50)"/>
<path d="M0 0 C0.99 0.495 0.99 0.495 2 1 C2 2.32 2 3.64 2 5 C5.96 5.33 9.92 5.66 14 6 C14 6.99 14 7.98 14 9 C15.98 9.66 17.96 10.32 20 11 C20 11.66 20 12.32 20 13 C13.67741935 13.36476427 13.67741935 13.36476427 10.5625 11.6875 C9 10 9 10 9 7 C6.36 7.66 3.72 8.32 1 9 C0.67 6.03 0.34 3.06 0 0 Z " fill="#CD968D" transform="translate(44,73)"/>
<path d="M0 0 C0.99 0.33 1.98 0.66 3 1 C2.01 1.33 1.02 1.66 0 2 C0 3.98 0 5.96 0 8 C1.98 8 3.96 8 6 8 C4 10 4 10 1 11 C0.67 11.99 0.34 12.98 0 14 C-1.98 14 -3.96 14 -6 14 C-4.125 9.125 -4.125 9.125 -3 8 C-3.04125 7.030625 -3.0825 6.06125 -3.125 5.0625 C-3.08375 4.051875 -3.0425 3.04125 -3 2 C-2.01 1.34 -1.02 0.68 0 0 Z " fill="#E7BEAD" transform="translate(54,40)"/>
<path d="M0 0 C0.828125 1.76953125 0.828125 1.76953125 1.25 3.8125 C1.47042969 4.87404297 1.47042969 4.87404297 1.6953125 5.95703125 C2.04943234 8.33145019 2.14976371 10.60378059 2 13 C-0.3129482 10.6870518 -0.49580975 9.52095125 -1.125 6.375 C-1.29257813 5.55773438 -1.46015625 4.74046875 -1.6328125 3.8984375 C-1.75398438 3.27195312 -1.87515625 2.64546875 -2 2 C-7.29078219 0.70245076 -12.41003243 1.01717845 -17.8203125 1.16015625 C-21 1 -21 1 -24 -1 C-4.79606068 -3.28812894 -4.79606068 -3.28812894 0 0 Z " fill="#BE8C77" transform="translate(89,38)"/>
<path d="M0 0 C2.14453125 0.19921875 2.14453125 0.19921875 4.8125 0.6875 C5.68519531 0.83574219 6.55789062 0.98398437 7.45703125 1.13671875 C10.67620216 2.22955557 11.96812748 3.26410147 14 6 C14.73050812 8.62588055 15.27347618 11.01793535 15.6875 13.6875 C16.08638153 18.2127824 16.08638153 18.2127824 18 22 C18.04063832 23.66617115 18.042721 25.33388095 18 27 C17.71125 26.401875 17.4225 25.80375 17.125 25.1875 C15.95257974 22.80672208 15.95257974 22.80672208 14 20 C13.59153205 17.67229225 13.22080526 15.33783835 12.875 13 C12.08884741 8.14254616 12.08884741 8.14254616 9.16796875 4.484375 C7.10393714 3.76445303 5.15539376 3.34260786 3 3 C1.6534734 2.36039986 0.31077107 1.710001 -1 1 C-0.67 0.67 -0.34 0.34 0 0 Z " fill="#63473A" transform="translate(77,32)"/>
<path d="M0 0 C4.64284683 5.74828655 6.33502267 10.30514848 6.30078125 17.6328125 C5.98148873 20.14568612 5.26056636 21.8203753 4 24 C2.42699038 18.26696495 1.75672222 13.84340558 3 8 C2.34 8 1.68 8 1 8 C0.67 5.36 0.34 2.72 0 0 Z " fill="#2B0E00" transform="translate(99,30)"/>
<path d="M0 0 C0.9075 0.226875 1.815 0.45375 2.75 0.6875 C3.08 1.6775 3.41 2.6675 3.75 3.6875 C-0.64453125 7.69140625 -0.64453125 7.69140625 -2.25 8.6875 C-3.24 8.3575 -4.23 8.0275 -5.25 7.6875 C-6.4375 5.125 -6.4375 5.125 -7.25 2.6875 C-4.61280971 0.1517401 -3.74095095 -0.35970682 0 0 Z " fill="#0C2F42" transform="translate(33.25,97.3125)"/>
<path d="M0 0 C1.32 1.32 2.64 2.64 4 4 C4.99 4.66 5.98 5.32 7 6 C6.34 8.31 5.68 10.62 5 13 C3.35 13.33 1.7 13.66 0 14 C0 9.38 0 4.76 0 0 Z " fill="#091721" transform="translate(40,81)"/>
<path d="M0 0 C1.23556641 0.01740234 1.23556641 0.01740234 2.49609375 0.03515625 C3.32238281 0.04417969 4.14867187 0.05320312 5 0.0625 C5.63808594 0.07410156 6.27617188 0.08570312 6.93359375 0.09765625 C6.93359375 2.07765625 6.93359375 4.05765625 6.93359375 6.09765625 C3.96359375 6.09765625 0.99359375 6.09765625 -2.06640625 6.09765625 C-2.44859392 4.44150968 -2.78035727 2.77308601 -3.06640625 1.09765625 C-2.06640625 0.09765625 -2.06640625 0.09765625 0 0 Z " fill="#E9B6A9" transform="translate(48.06640625,72.90234375)"/>
<path d="M0 0 C2.4294516 3.6441774 2.16179575 5.71241272 2 10 C-0.31 10 -2.62 10 -5 10 C-4.34 8.68 -3.68 7.36 -3 6 C-4.32 5.67 -5.64 5.34 -7 5 C-6.01 4.67 -5.02 4.34 -4 4 C-3.67 3.01 -3.34 2.02 -3 1 C-2.01 0.67 -1.02 0.34 0 0 Z " fill="#2B444D" transform="translate(106,98)"/>
<path d="M0 0 C0.66 0 1.32 0 2 0 C2.05447047 1.41623216 2.09300508 2.83308191 2.125 4.25 C2.14820312 5.03890625 2.17140625 5.8278125 2.1953125 6.640625 C2 9 2 9 0 13 C-4.29 12.67 -8.58 12.34 -13 12 C-13 11.34 -13 10.68 -13 10 C-9.04 10 -5.08 10 -1 10 C-1 8.02 -1 6.04 -1 4 C-2.32 3.67 -3.64 3.34 -5 3 C-4.360625 2.87625 -3.72125 2.7525 -3.0625 2.625 C-2.381875 2.41875 -1.70125 2.2125 -1 2 C-0.67 1.34 -0.34 0.68 0 0 Z " fill="#DFA78F" transform="translate(85,69)"/>
<path d="M0 0 C0.33 1.32 0.66 2.64 1 4 C2.32 4 3.64 4 5 4 C5.04254356 5.99954746 5.04080783 8.00041636 5 10 C4 11 4 11 0.9375 11.0625 C-0.031875 11.041875 -1.00125 11.02125 -2 11 C-2 2 -2 2 0 0 Z " fill="#C5BABE" transform="translate(51,61)"/>
<path d="M0 0 C2.64 0.33 5.28 0.66 8 1 C7.01 1.495 7.01 1.495 6 2 C6 2.99 6 3.98 6 5 C7.94074861 4.72382467 7.94074861 4.72382467 10 4 C10.66 3.01 11.32 2.02 12 1 C11.67 2.65 11.34 4.3 11 6 C6.05 6.66 1.1 7.32 -4 8 C-3.67 7.01 -3.34 6.02 -3 5 C-1.68 5 -0.36 5 1 5 C1.33 4.34 1.66 3.68 2 3 C1.01 2.67 0.02 2.34 -1 2 C-0.67 1.34 -0.34 0.68 0 0 Z " fill="#B98F8B" transform="translate(73,66)"/>
<path d="M0 0 C0.66 0.33 1.32 0.66 2 1 C1.67 1.598125 1.34 2.19625 1 2.8125 C-0.20787988 5.05386471 -0.20787988 5.05386471 0 8 C-2.5 10.1875 -2.5 10.1875 -5 12 C-5.66 11.67 -6.32 11.34 -7 11 C-7 10.01 -7 9.02 -7 8 C-8.32 7.67 -9.64 7.34 -11 7 C-7.55930376 4.70620251 -6.27709699 4 -2 4 C-2 3.34 -2 2.68 -2 2 C-1.34 2 -0.68 2 0 2 C0 1.34 0 0.68 0 0 Z " fill="#685249" transform="translate(91,88)"/>
<path d="M0 0 C0.33 0.66 0.66 1.32 1 2 C1.99 2 2.98 2 4 2 C4 2.66 4 3.32 4 4 C6.31 4.66 8.62 5.32 11 6 C11.33 7.32 11.66 8.64 12 10 C6.25 10.125 6.25 10.125 4 9 C4 8.01 4 7.02 4 6 C2.68 6 1.36 6 0 6 C0 4.02 0 2.04 0 0 Z " fill="#C7A21B" transform="translate(0,54)"/>
<path d="M0 0 C3.63 0 7.26 0 11 0 C9 5 9 5 7 7 C6.375 5.125 6.375 5.125 6 3 C6.66 2.34 7.32 1.68 8 1 C6.35 1 4.7 1 3 1 C3 2.98 3 4.96 3 7 C2.01 7.495 2.01 7.495 1 8 C0.34 7.34 -0.32 6.68 -1 6 C-1.66 6.66 -2.32 7.32 -3 8 C-3 7.34 -3 6.68 -3 6 C-3.66 5.67 -4.32 5.34 -5 5 C-4.34 5 -3.68 5 -3 5 C-2.67 4.01 -2.34 3.02 -2 2 C-1.34 2 -0.68 2 0 2 C0 1.34 0 0.68 0 0 Z " fill="#17110A" transform="translate(58,18)"/>
<path d="M0 0 C0.57073242 0.16298584 1.14146484 0.32597168 1.72949219 0.49389648 C4.01653267 1.00368519 5.98964456 1.11435968 8.328125 1.09765625 C9.12734375 1.09443359 9.9265625 1.09121094 10.75 1.08789062 C11.9875 1.07532227 11.9875 1.07532227 13.25 1.0625 C14.09046875 1.05798828 14.9309375 1.05347656 15.796875 1.04882812 C17.86461401 1.03707961 19.93231624 1.01914522 22 1 C21.67 1.66 21.34 2.32 21 3 C20.34 3 19.68 3 19 3 C19 3.66 19 4.32 19 5 C17.02 5.33 15.04 5.66 13 6 C13 5.34 13 4.68 13 4 C12.31292969 4.10699219 11.62585938 4.21398437 10.91796875 4.32421875 C10.01691406 4.44410156 9.11585937 4.56398438 8.1875 4.6875 C7.29417969 4.81511719 6.40085937 4.94273438 5.48046875 5.07421875 C3 5 3 5 1.17578125 3.64453125 C0 2 0 2 0 0 Z " fill="#9E6464" transform="translate(53,84)"/>
<path d="M0 0 C2.475 0.495 2.475 0.495 5 1 C5 1.99 5 2.98 5 4 C5.66 4 6.32 4 7 4 C7.37125 4.8971875 7.37125 4.8971875 7.75 5.8125 C8.86434075 8.135974 8.86434075 8.135974 11.125 9.4375 C13 11 13 11 13.25 13.6875 C13.1675 14.450625 13.085 15.21375 13 16 C12.67 15.34 12.34 14.68 12 14 C10.68 14 9.36 14 8 14 C5 7.25 5 7.25 5 5 C4.34 5 3.68 5 3 5 C1.375 2.5 1.375 2.5 0 0 Z " fill="#E2C150" transform="translate(95,21)"/>
<path d="M0 0 C2 0 2 0 3.625 1.25 C5 3 5 3 5 7 C5.66 7 6.32 7 7 7 C7.1875 9.875 7.1875 9.875 7 13 C3.5647952 15.29013653 2.014669 15.17842973 -2 15 C-2 14.01 -2 13.02 -2 12 C0.31 12 2.62 12 5 12 C3.35 8.04 1.7 4.08 0 0 Z " fill="#9C6052" transform="translate(64,67)"/>
<path d="M0 0 C1.0209375 0.433125 1.0209375 0.433125 2.0625 0.875 C5.32893093 2.12597355 8.62846123 3.07447955 12 4 C12 4.99 12 5.98 12 7 C8.37 7 4.74 7 1 7 C0.67 4.69 0.34 2.38 0 0 Z " fill="#090200" transform="translate(56,101)"/>
<path d="M0 0 C0.99 0.66 1.98 1.32 3 2 C3.1875 5.125 3.1875 5.125 3 8 C2.34 8 1.68 8 1 8 C0.67 9.65 0.34 11.3 0 13 C-2.475 12.01 -2.475 12.01 -5 11 C-4.67 9.68 -4.34 8.36 -4 7 C-3.01 7 -2.02 7 -1 7 C-0.67 4.69 -0.34 2.38 0 0 Z " fill="#030102" transform="translate(46,87)"/>
<path d="M0 0 C0.33 0.66 0.66 1.32 1 2 C1.66 2 2.32 2 3 2 C2.745504 3.48206495 2.47088238 4.96068615 2.1875 6.4375 C2.03667969 7.26121094 1.88585937 8.08492187 1.73046875 8.93359375 C1.48941406 9.61550781 1.24835938 10.29742187 1 11 C0.01 11.33 -0.98 11.66 -2 12 C-3.25 8.8125 -3.25 8.8125 -4 5 C-2.125 2.0625 -2.125 2.0625 0 0 Z " fill="#977566" transform="translate(96,73)"/>
<path d="M0 0 C0.99 0 1.98 0 3 0 C3 0.99 3 1.98 3 3 C2.34 3 1.68 3 1 3 C1 3.99 1 4.98 1 6 C0.21625 6.268125 -0.5675 6.53625 -1.375 6.8125 C-4.28114923 7.84814432 -4.28114923 7.84814432 -6 11 C-7.76462683 7.91190305 -8 6.76687864 -8 3 C-5.36 3 -2.72 3 0 3 C0 2.01 0 1.02 0 0 Z " fill="#20190F" transform="translate(49,24)"/>
<path d="M0 0 C1.485 0.99 1.485 0.99 3 2 C3 2.99 3 3.98 3 5 C3.66 5 4.32 5 5 5 C5 5.66 5 6.32 5 7 C5.99 7 6.98 7 8 7 C7.67 6.01 7.34 5.02 7 4 C7.66 3.01 8.32 2.02 9 1 C10.125 7.625 10.125 7.625 9 11 C8.01 11.495 8.01 11.495 7 12 C6.67 11.01 6.34 10.02 6 9 C4.02 9 2.04 9 0 9 C0.66 7.35 1.32 5.7 2 4 C1.34 3.67 0.68 3.34 0 3 C0 2.01 0 1.02 0 0 Z " fill="#062C42" transform="translate(31,87)"/>
<path d="M0 0 C4.67105792 1.55701931 8.08705685 4.08447373 12 7 C11.67 7.99 11.34 8.98 11 10 C9.68 9.67 8.36 9.34 7 9 C7 8.34 7 7.68 7 7 C6.401875 6.731875 5.80375 6.46375 5.1875 6.1875 C3.00152146 5.00082594 1.58667406 3.90400887 0 2 C0 1.34 0 0.68 0 0 Z " fill="#490200" transform="translate(15,72)"/>
<path d="M0 0 C1.051875 -0.02126953 1.051875 -0.02126953 2.125 -0.04296875 C4 0.1875 4 0.1875 6 2.1875 C5.67 3.1775 5.34 4.1675 5 5.1875 C1.37 4.5275 -2.26 3.8675 -6 3.1875 C-6.33 4.1775 -6.66 5.1675 -7 6.1875 C-6.625 3.75 -6.625 3.75 -6 1.1875 C-3.77109005 0.07304502 -2.46944894 0.02269714 0 0 Z " fill="#AD9B9C" transform="translate(79,55.8125)"/>
<path d="M0 0 C2.33944736 0.28730055 4.6739143 0.61936779 7 1 C5.61122646 4.35620271 4.08322035 6.07298728 1 8 C0.34 8 -0.32 8 -1 8 C-1.04241723 5.66705225 -1.04092937 3.33297433 -1 1 C-0.67 0.67 -0.34 0.34 0 0 Z " fill="#9E1C45" transform="translate(1,98)"/>
<path d="M0 0 C0.33 0 0.66 0 1 0 C0.65331837 6.58695094 -0.62632394 10.00151308 -5 15 C-5.99 15 -6.98 15 -8 15 C-8.33 14.01 -8.66 13.02 -9 12 C-7.7934375 11.319375 -7.7934375 11.319375 -6.5625 10.625 C-3.91143428 9.25274335 -3.91143428 9.25274335 -3 7 C-3 6.01 -3 5.02 -3 4 C-1.5625 1.8125 -1.5625 1.8125 0 0 Z " fill="#A6B2B5" transform="translate(93,88)"/>
<path d="M0 0 C0.33 0.99 0.66 1.98 1 3 C4.63 3 8.26 3 12 3 C12 3.66 12 4.32 12 5 C8.04 5 4.08 5 0 5 C0 6.98 0 8.96 0 11 C-0.33 11 -0.66 11 -1 11 C-1 8.36 -1 5.72 -1 3 C-2.32 3.99 -3.64 4.98 -5 6 C-5.99 5.34 -6.98 4.68 -8 4 C-3.375 0 -3.375 0 0 0 Z " fill="#8D756A" transform="translate(44,68)"/>
<path d="M0 0 C0.66 0 1.32 0 2 0 C1.67587628 3.02515469 1.10171348 3.91241339 -1.25 5.9375 C-2.61125 6.9584375 -2.61125 6.9584375 -4 8 C-4.825 8.86625 -5.65 9.7325 -6.5 10.625 C-8.97353671 12.97485987 -10.78091832 13.98828861 -14 15 C-13.34 12.69 -12.68 10.38 -12 8 C-11.67 9.32 -11.34 10.64 -11 12 C-9.5385774 10.56564079 -8.08096951 9.12739414 -6.625 7.6875 C-5.40683594 6.48673828 -5.40683594 6.48673828 -4.1640625 5.26171875 C-1.87395158 2.99990063 -1.87395158 2.99990063 0 0 Z " fill="#00080E" transform="translate(106,83)"/>
<path d="M0 0 C0.33 0.66 0.66 1.32 1 2 C0.01 2.33 -0.98 2.66 -2 3 C-1.2575 3.5878125 -1.2575 3.5878125 -0.5 4.1875 C1.45593143 6.55091715 1.24207973 8.01435003 1 11 C-1.49824035 9.5023304 -3.86004673 7.98441782 -6 6 C-6.4375 3.1875 -6.4375 3.1875 -6 1 C-4.02 0.67 -2.04 0.34 0 0 Z " fill="#790016" transform="translate(7,82)"/>
<path d="M0 0 C0.33 0 0.66 0 1 0 C1 1.65 1 3.3 1 5 C1.5775 5.0825 2.155 5.165 2.75 5.25 C5.6159304 6.20531013 6.9990764 7.78469173 9 10 C5.78548731 11.60725635 2.56387464 11.05748185 -1 11 C-0.67 7.37 -0.34 3.74 0 0 Z " fill="#E1B39E" transform="translate(76,43)"/>
<path d="M0 0 C0.66 0.33 1.32 0.66 2 1 C2 1.66 2 2.32 2 3 C1.01 3 0.02 3 -1 3 C-1 3.66 -1 4.32 -1 5 C-1.66 5 -2.32 5 -3 5 C-3 5.66 -3 6.32 -3 7 C-4.216875 7.4125 -5.43375 7.825 -6.6875 8.25 C-10.36735474 9.6160562 -13.06918364 11.34394768 -16 14 C-16.33 13.34 -16.66 12.68 -17 12 C-16.195625 11.38125 -15.39125 10.7625 -14.5625 10.125 C-11.96125481 8.25835959 -11.96125481 8.25835959 -11 6 C-8.5 5.5 -8.5 5.5 -6 5 C-5.67 4.34 -5.34 3.68 -5 3 C-3.68352881 2.30062468 -2.34977849 1.63270867 -1 1 C-0.67 0.67 -0.34 0.34 0 0 Z " fill="#955F48" transform="translate(92,85)"/>
<path d="M0 0 C0 2 0 4 0 6 C-0.94875 6.268125 -1.8975 6.53625 -2.875 6.8125 C-6.25267273 7.74986588 -6.25267273 7.74986588 -8 11 C-8.33 9.35 -8.66 7.7 -9 6 C-8.34 5.67 -7.68 5.34 -7 5 C-7.99 4.01 -8.98 3.02 -10 2 C-9.0925 2.04125 -8.185 2.0825 -7.25 2.125 C-4.1217954 2.00468444 -2.61385994 1.6085292 0 0 Z " fill="#3F4046" transform="translate(26,81)"/>
<path d="M0 0 C0.66 0 1.32 0 2 0 C2 3.63 2 7.26 2 11 C1.34 10.34 0.68 9.68 0 9 C-2.60280568 9.32041397 -2.60280568 9.32041397 -5 10 C-4.6875 7.625 -4.6875 7.625 -4 5 C-3.01 4.34 -2.02 3.68 -1 3 C-0.67 2.01 -0.34 1.02 0 0 Z " fill="#365159" transform="translate(106,90)"/>
<path d="M0 0 C1.65 1.32 3.3 2.64 5 4 C5 3.34 5 2.68 5 2 C4.34 1.67 3.68 1.34 3 1 C3.99 0.67 4.98 0.34 6 0 C7 2 8 4 9 6 C8.34 6.66 7.68 7.32 7 8 C6.34 7.34 5.68 6.68 5 6 C4.01 6.99 3.02 7.98 2 9 C1.34 8.67 0.68 8.34 0 8 C0 5.36 0 2.72 0 0 Z " fill="#B18369" transform="translate(87,80)"/>
<path d="M0 0 C1.50303217 2.38716874 2.01411453 3.71065206 1.875 6.5625 C0.82403075 9.49020006 -0.38722542 10.39862203 -3 12 C-4.32 11.34 -5.64 10.68 -7 10 C-6.34 9.67 -5.68 9.34 -5 9 C-4.67 8.01 -4.34 7.02 -4 6 C-3 5 -2 4 -1 3 C-0.67 2.01 -0.34 1.02 0 0 Z " fill="#DBCB5A" transform="translate(39,61)"/>
<path d="M0 0 C1.21236328 0.04060547 1.21236328 0.04060547 2.44921875 0.08203125 C3.06410156 0.11683594 3.67898437 0.15164062 4.3125 0.1875 C4.3125 1.8375 4.3125 3.4875 4.3125 5.1875 C3.3225 5.6825 3.3225 5.6825 2.3125 6.1875 C2.3125 4.8675 2.3125 3.5475 2.3125 2.1875 C1.3225 2.1875 0.3325 2.1875 -0.6875 2.1875 C-1.0175 3.5075 -1.3475 4.8275 -1.6875 6.1875 C-2.3475 6.1875 -3.0075 6.1875 -3.6875 6.1875 C-3.6875 5.5275 -3.6875 4.8675 -3.6875 4.1875 C-5.0075 3.8575 -6.3275 3.5275 -7.6875 3.1875 C-5.26849268 0.20484049 -3.789448 -0.16475861 0 0 Z " fill="#795C5D" transform="translate(60.6875,60.8125)"/>
<path d="M0 0 C1.2065625 0.0309375 1.2065625 0.0309375 2.4375 0.0625 C2.4375 1.0525 2.4375 2.0425 2.4375 3.0625 C3.4275 3.3925 4.4175 3.7225 5.4375 4.0625 C4.4475 4.7225 3.4575 5.3825 2.4375 6.0625 C3.0975 6.3925 3.7575 6.7225 4.4375 7.0625 C3.1175 7.3925 1.7975 7.7225 0.4375 8.0625 C0.4375 7.0725 0.4375 6.0825 0.4375 5.0625 C-0.5525 5.3925 -1.5425 5.7225 -2.5625 6.0625 C-2.94468767 4.40635343 -3.27645102 2.73792976 -3.5625 1.0625 C-2.5625 0.0625 -2.5625 0.0625 0 0 Z " fill="#BD897C" transform="translate(50.5625,79.9375)"/>
<path d="M0 0 C0.99 0.33 1.98 0.66 3 1 C3 1.66 3 2.32 3 3 C4.65 2.67 6.3 2.34 8 2 C8.33 2.66 8.66 3.32 9 4 C8.01 4.495 8.01 4.495 7 5 C7 5.99 7 6.98 7 8 C5.35 7.67 3.7 7.34 2 7 C2 6.01 2 5.02 2 4 C1.01 4 0.02 4 -1 4 C-0.67 2.68 -0.34 1.36 0 0 Z " fill="#C79F8D" transform="translate(42,64)"/>
<path d="M0 0 C2.64 0 5.28 0 8 0 C8.33 0.99 8.66 1.98 9 3 C8.67 3.66 8.34 4.32 8 5 C1.25 4.125 1.25 4.125 -1 3 C-0.67 2.01 -0.34 1.02 0 0 Z " fill="#BA7F80" transform="translate(58,88)"/>
<path d="M0 0 C0.99 0.33 1.98 0.66 3 1 C3.28571429 8.42857143 3.28571429 8.42857143 1 12 C0.01 11.67 -0.98 11.34 -2 11 C-1 3.57142857 -1 3.57142857 0 0 Z " fill="#0D1017" transform="translate(48,91)"/>
<path d="M0 0 C1.7734375 1.00390625 1.7734375 1.00390625 3.2734375 3.19140625 C3.4384375 3.78953125 3.6034375 4.38765625 3.7734375 5.00390625 C2.7834375 5.00390625 1.7934375 5.00390625 0.7734375 5.00390625 C0.7734375 4.34390625 0.7734375 3.68390625 0.7734375 3.00390625 C-0.8353125 2.81828125 -0.8353125 2.81828125 -2.4765625 2.62890625 C-5.60519865 2.10746689 -7.56136674 1.60302371 -10.2265625 0.00390625 C-6.5988741 -2.86801373 -3.90677815 -1.61935228 0 0 Z " fill="#AD2352" transform="translate(14.2265625,84.99609375)"/>
<path d="M0 0 C0.99 0 1.98 0 3 0 C3 0.66 3 1.32 3 2 C4.1446875 2.4021875 4.1446875 2.4021875 5.3125 2.8125 C7.98678071 3.99415892 9.31681182 4.64353655 11 7 C11.6875 10.1875 11.6875 10.1875 12 13 C11.01 12.67 10.02 12.34 9 12 C8.66666667 10.66666667 8.33333333 9.33333333 8 8 C7.01 7.67 6.02 7.34 5 7 C5 6.34 5 5.68 5 5 C4.34 5 3.68 5 3 5 C2.87625 4.360625 2.7525 3.72125 2.625 3.0625 C2.315625 2.0415625 2.315625 2.0415625 2 1 C1.34 0.67 0.68 0.34 0 0 Z " fill="#553303" transform="translate(87,17)"/>
<path d="M0 0 C8.57142857 -0.14285714 8.57142857 -0.14285714 12 1 C12 1.66 12 2.32 12 3 C3.42857143 4.28571429 3.42857143 4.28571429 0 3 C0 2.01 0 1.02 0 0 Z " fill="#B5592A" transform="translate(86,59)"/>
<path d="M0 0 C0.66 1.32 1.32 2.64 2 4 C-2.62 4 -7.24 4 -12 4 C-12 3.01 -12 2.02 -12 1 C-7.915021 0.45533613 -4.1274515 0 0 0 Z " fill="#896762" transform="translate(83,53)"/>
<path d="M0 0 C0.99 0.33 1.98 0.66 3 1 C2.49701212 5.40114397 0.91227269 7.71195019 -2 11 C-1.67 9.35 -1.34 7.7 -1 6 C-1.66 6 -2.32 6 -3 6 C-3 4.68 -3 3.36 -3 2 C-2.01 2 -1.02 2 0 2 C0 1.34 0 0.68 0 0 Z " fill="#C8B5B3" transform="translate(100,69)"/>
<path d="M0 0 C2.4375 0.375 2.4375 0.375 5 1 C5.33 1.66 5.66 2.32 6 3 C5.38125 3.4125 4.7625 3.825 4.125 4.25 C1.93231719 6.05573879 1.07211583 7.4090534 0 10 C-0.66 9.67 -1.32 9.34 -2 9 C-1.67 8.67 -1.34 8.34 -1 8 C-1.66 7.67 -2.32 7.34 -3 7 C-3 6.34 -3 5.68 -3 5 C-1.68 4.67 -0.36 4.34 1 4 C0.34 3.67 -0.32 3.34 -1 3 C-0.67 2.01 -0.34 1.02 0 0 Z " fill="#AD928D" transform="translate(48,57)"/>
<path d="M0 0 C6.93 0.495 6.93 0.495 14 1 C14 1.33 14 1.66 14 2 C12.89591797 2.18175781 12.89591797 2.18175781 11.76953125 2.3671875 C10.79371094 2.53476562 9.81789063 2.70234375 8.8125 2.875 C7.84957031 3.03742187 6.88664062 3.19984375 5.89453125 3.3671875 C3.08967396 3.98039517 0.62775253 4.85666343 -2 6 C-2 5.01 -2 4.02 -2 3 C-1.34 3 -0.68 3 0 3 C0 2.01 0 1.02 0 0 Z " fill="#2A0E04" transform="translate(50,32)"/>
<path d="M0 0 C7.625 0.875 7.625 0.875 11 2 C11.33 2.66 11.66 3.32 12 4 C14.01669827 5.13350534 14.01669827 5.13350534 16 6 C16 6.33 16 6.66 16 7 C13.625 7.1875 13.625 7.1875 11 7 C10.34 6.01 9.68 5.02 9 4 C6.67793475 3.29508733 4.34406932 2.62787571 2 2 C1.34 1.34 0.68 0.68 0 0 Z " fill="#DCB938" transform="translate(16,64)"/>
<path d="M0 0 C2.74782689 5.31246532 3.09669018 9.10189908 3 15 C2.34 15 1.68 15 1 15 C-0.44207941 12.11584117 -0.09394887 9.58278472 -0.0625 6.375 C-0.05347656 5.18648437 -0.04445313 3.99796875 -0.03515625 2.7734375 C-0.02355469 1.85820313 -0.01195313 0.94296875 0 0 Z " fill="#C6A534" transform="translate(105,41)"/>
<path d="M0 0 C2.64 0.33 5.28 0.66 8 1 C8 2.65 8 4.3 8 6 C6.125 6.625 6.125 6.625 4 7 C1.77810176 4.77810176 1.07401108 2.91517292 0 0 Z " fill="#1C0100" transform="translate(95,51)"/>
<path d="M0 0 C0.66 0 1.32 0 2 0 C2.33 4.95 2.66 9.9 3 15 C2.01 14.67 1.02 14.34 0 14 C0 9.38 0 4.76 0 0 Z " fill="#E0C65E" transform="translate(38,29)"/>
<path d="M0 0 C-1.32 0.33 -2.64 0.66 -4 1 C-4 1.99 -4 2.98 -4 4 C-6.64 4 -9.28 4 -12 4 C-10.25457865 0.99399656 -9.42467941 0.11501734 -6 -0.8125 C-3 -1 -3 -1 0 0 Z " fill="#524417" transform="translate(53,23)"/>
<path d="M0 0 C0.99 0.33 1.98 0.66 3 1 C3 1.66 3 2.32 3 3 C4.32 3.33 5.64 3.66 7 4 C6 6 6 6 4.1875 6.625 C2 7 2 7 -2 7 C-2 6.01 -2 5.02 -2 4 C-1.34 4 -0.68 4 0 4 C0 2.68 0 1.36 0 0 Z " fill="#0E0704" transform="translate(52,23)"/>
<path d="M0 0 C0.2475 0.639375 0.495 1.27875 0.75 1.9375 C1.79734983 4.17876824 1.79734983 4.17876824 4 4.625 C4.66 4.74875 5.32 4.8725 6 5 C6.66 5.66 7.32 6.32 8 7 C7.67 7.66 7.34 8.32 7 9 C6.01 9 5.02 9 4 9 C4 8.34 4 7.68 4 7 C2.35 7 0.7 7 -1 7 C-0.67 4.69 -0.34 2.38 0 0 Z " fill="#BC887A" transform="translate(71,76)"/>
<path d="M0 0 C0.99 0 1.98 0 3 0 C3 0.66 3 1.32 3 2 C4.32 2.33 5.64 2.66 7 3 C6.67 3.99 6.34 4.98 6 6 C1.25 5.125 1.25 5.125 -1 4 C-0.67 2.68 -0.34 1.36 0 0 Z " fill="#D8C4C6" transform="translate(68,66)"/>
<path d="M0 0 C2.64 0 5.28 0 8 0 C7.34 0.66 6.68 1.32 6 2 C5.3574765 4.06874034 5.3574765 4.06874034 5 6 C3.35 5.67 1.7 5.34 0 5 C0 3.35 0 1.7 0 0 Z " fill="#F2D15B" transform="translate(1,48)"/>
<path d="M0 0 C2 3 2 3 2 6 C2.66 6 3.32 6 4 6 C4 6.66 4 7.32 4 8 C2.02 8 0.04 8 -2 8 C-2 8.66 -2 9.32 -2 10 C-2.66 9.67 -3.32 9.34 -4 9 C-2.68 6.03 -1.36 3.06 0 0 Z " fill="#CA8C79" transform="translate(64,71)"/>
<path d="M0 0 C1.58158962 3.00887781 2.43945339 5.63672037 3 9 C2.34 9 1.68 9 1 9 C1.33 9.66 1.66 10.32 2 11 C2.13415472 13.6723621 2.04318541 16.32250488 2 19 C1.67 19 1.34 19 1 19 C0.15976812 14.64667264 -0.10770995 10.55557481 -0.0625 6.125 C-0.05347656 4.97257812 -0.04445312 3.82015625 -0.03515625 2.6328125 C-0.02355469 1.76398437 -0.01195312 0.89515625 0 0 Z " fill="#6B5A23" transform="translate(40,27)"/>
<path d="M0 0 C-1.375 2 -1.375 2 -4 4 C-7.3580469 4.35791096 -10.63536357 4.23115823 -14 4 C-9.19153705 0.27892805 -6.08647834 -0.13832905 0 0 Z " fill="#290B04" transform="translate(79,31)"/>
<path d="M0 0 C0.66 0 1.32 0 2 0 C2 0.99 2 1.98 2 3 C2.99 2.67 3.98 2.34 5 2 C5 2.66 5 3.32 5 4 C1.7 4 -1.6 4 -5 4 C-5 4.66 -5 5.32 -5 6 C-5.66 6 -6.32 6 -7 6 C-6.67 4.35 -6.34 2.7 -6 1 C-3.03 1.495 -3.03 1.495 0 2 C0 1.34 0 0.68 0 0 Z " fill="#332209" transform="translate(63,14)"/>
<path d="M0 0 C3.63 0.66 7.26 1.32 11 2 C11.33 2.99 11.66 3.98 12 5 C12.99 5.33 13.98 5.66 15 6 C11 6 11 6 9 5 C9 4.34 9 3.68 9 3 C7.88625 3.020625 6.7725 3.04125 5.625 3.0625 C2 3 2 3 0 2 C0 1.34 0 0.68 0 0 Z " fill="#D3B452" transform="translate(81,14)"/>
<path d="M0 0 C1.67542976 0.28604898 3.34385343 0.61781233 5 1 C2.68600977 3.31399023 2.01395276 3.32256804 -1.1328125 3.6328125 C-1.93847656 3.71660156 -2.74414062 3.80039063 -3.57421875 3.88671875 C-4.41597656 3.96535156 -5.25773437 4.04398438 -6.125 4.125 C-6.97449219 4.21136719 -7.82398438 4.29773438 -8.69921875 4.38671875 C-10.79869727 4.59902557 -12.89926242 4.80053603 -15 5 C-14.34 3.68 -13.68 2.36 -13 1 C-12.01 1.33 -11.02 1.66 -10 2 C-7.73980671 1.94297026 -7.73980671 1.94297026 -5.375 1.625 C-4.18003906 1.48964844 -4.18003906 1.48964844 -2.9609375 1.3515625 C-1.00278017 1.19318916 -1.00278017 1.19318916 0 0 Z " fill="#E4C66F" transform="translate(70,10)"/>
<path d="M0 0 C0.66 0.33 1.32 0.66 2 1 C-1.19588005 4.70722086 -4.38710598 6.40645479 -9 8 C-9.99 7.67 -10.98 7.34 -12 7 C-10.68 6.67 -9.36 6.34 -8 6 C-8 5.34 -8 4.68 -8 4 C-6.71349294 3.30289269 -5.42059335 2.61757124 -4.125 1.9375 C-3.40570313 1.55464844 -2.68640625 1.17179687 -1.9453125 0.77734375 C-1.30335937 0.52082031 -0.66140625 0.26429687 0 0 Z " fill="#0B0404" transform="translate(82,100)"/>
<path d="M0 0 C3.33727786 1.17255709 5.77437487 2.18868404 8 5 C8 5.66 8 6.32 8 7 C5.03824877 6.38722388 3.61941217 5.74627478 1 4 C0.67 4.66 0.34 5.32 0 6 C0 4.02 0 2.04 0 0 Z " fill="#0F0000" transform="translate(0,88)"/>
<path d="M0 0 C4.62 0 9.24 0 14 0 C14 1.98 14 3.96 14 6 C13.01 5.67 12.02 5.34 11 5 C11 3.68 11 2.36 11 1 C8.03 1 5.06 1 2 1 C1.67 1.66 1.34 2.32 1 3 C0.67 2.01 0.34 1.02 0 0 Z " fill="#E7B2A5" transform="translate(70,73)"/>
<path d="M0 0 C1.65 0 3.3 0 5 0 C4.67 2.31 4.34 4.62 4 7 C2.68 6.34 1.36 5.68 0 5 C0 3.35 0 1.7 0 0 Z " fill="#B77E6A" transform="translate(100,64)"/>
<path d="M0 0 C2.31 0.33 4.62 0.66 7 1 C10.44419134 10.41002278 10.44419134 10.41002278 10 15 C7.65074657 12.65074657 7.69094611 11.7593593 7.25 8.5625 C6.84134186 6.14970553 6.84134186 6.14970553 6 4 C3.04765553 1.85334283 3.04765553 1.85334283 0 1 C0 0.67 0 0.34 0 0 Z " fill="#A07765" transform="translate(81,36)"/>
<path d="M0 0 C0.89203125 0.01804687 1.7840625 0.03609375 2.703125 0.0546875 C3.71632813 0.08949219 3.71632813 0.08949219 4.75 0.125 C3.46034824 1.50062854 2.12310707 2.83266393 0.75 4.125 C0.09 4.125 -0.57 4.125 -1.25 4.125 C-1.25 3.135 -1.25 2.145 -1.25 1.125 C-1.91 1.125 -2.57 1.125 -3.25 1.125 C-3.25 1.785 -3.25 2.445 -3.25 3.125 C-6.22 2.63 -6.22 2.63 -9.25 2.125 C-6.03817851 0.21891902 -3.71117397 -0.09766247 0 0 Z " fill="#6C5319" transform="translate(66.25,12.875)"/>
<path d="M0 0 C0.66 0 1.32 0 2 0 C1.54917531 1.46067199 1.08906463 2.91848032 0.625 4.375 C0.36976562 5.18710938 0.11453125 5.99921875 -0.1484375 6.8359375 C-1 9 -1 9 -3 11 C-3.75 9.4375 -3.75 9.4375 -4 7 C-2.86915563 4.49713591 -1.47860484 2.32992278 0 0 Z " fill="#050A11" transform="translate(99,79)"/>
<path d="M0 0 C0.99 0.33 1.98 0.66 3 1 C3 4.3 3 7.6 3 11 C0 8 0 8 -0.29296875 5.95703125 C-0.1953125 3.97135417 -0.09765625 1.98567708 0 0 Z " fill="#0B151A" transform="translate(36,74)"/>
<path d="M0 0 C2.97 0 5.94 0 9 0 C7.68 0.33 6.36 0.66 5 1 C5 1.66 5 2.32 5 3 C5.99 3.33 6.98 3.66 8 4 C7.01 4.66 6.02 5.32 5 6 C4.67 5.34 4.34 4.68 4 4 C2.68 4 1.36 4 0 4 C0 2.68 0 1.36 0 0 Z " fill="#80624B" transform="translate(40,61)"/>
<path d="M0 0 C1 4 1 4 0 7 C2.475 7.99 2.475 7.99 5 9 C4.67 10.32 4.34 11.64 4 13 C3.34 13 2.68 13 2 13 C1.67 12.01 1.34 11.02 1 10 C0.34 9.67 -0.32 9.34 -1 9 C-0.67 6.03 -0.34 3.06 0 0 Z " fill="#A27C2B" transform="translate(103,54)"/>
<path d="M0 0 C0.33 0 0.66 0 1 0 C1.66 4.95 2.32 9.9 3 15 C2.34 15 1.68 15 1 15 C-1.44723163 9.95258476 -1.77882289 5.33646866 0 0 Z " fill="#E3C67F" transform="translate(41,46)"/>
<path d="M0 0 C2.475 0.495 2.475 0.495 5 1 C4.67 3.97 4.34 6.94 4 10 C3.01 10 2.02 10 1 10 C1.33 7.03 1.66 4.06 2 1 C1.34 0.67 0.68 0.34 0 0 Z " fill="#DCA68C" transform="translate(76,38)"/>
<path d="M0 0 C4.76359006 0.4425193 8.8681971 1.0837786 12.625 4.125 C13.07875 4.74375 13.5325 5.3625 14 6 C13.67 6.99 13.34 7.98 13 9 C12.34 8.01 11.68 7.02 11 6 C9.18630565 5.06688654 9.18630565 5.06688654 7.125 4.4375 C4.29496273 3.45985076 1.64061269 2.43033188 -1 1 C-0.67 0.67 -0.34 0.34 0 0 Z " fill="#5D3B29" transform="translate(77,32)"/>
<path d="M0 0 C0.99 0.33 1.98 0.66 3 1 C2.67 2.65 2.34 4.3 2 6 C0.02 6.33 -1.96 6.66 -4 7 C-4.33 6.01 -4.66 5.02 -5 4 C-3.68 4 -2.36 4 -1 4 C-0.67 2.68 -0.34 1.36 0 0 Z " fill="#5C5F6D" transform="translate(17,92)"/>
<path d="M0 0 C2.88575819 0.39803561 3.82189513 0.79009069 5.75 3.0625 C6.36875 4.0215625 6.36875 4.0215625 7 5 C6.01 5.33 5.02 5.66 4 6 C4 5.34 4 4.68 4 4 C3.071875 4.309375 3.071875 4.309375 2.125 4.625 C1.42375 4.74875 0.7225 4.8725 0 5 C-0.66 4.34 -1.32 3.68 -2 3 C-1.34 2.01 -0.68 1.02 0 0 Z " fill="#D1A79E" transform="translate(57,93)"/>
<path d="M0 0 C0.66 0 1.32 0 2 0 C0.52307692 6.52307692 0.52307692 6.52307692 -2.125 8.9375 C-2.74375 9.288125 -3.3625 9.63875 -4 10 C-4 7.36 -4 4.72 -4 2 C-3.01 2 -2.02 2 -1 2 C-0.67 1.34 -0.34 0.68 0 0 Z " fill="#15242F" transform="translate(98,86)"/>
<path d="M0 0 C0.66 0 1.32 0 2 0 C1.67 1.32 1.34 2.64 1 4 C-1.97 3.505 -1.97 3.505 -5 3 C-5 5.31 -5 7.62 -5 10 C-5.66 9.34 -6.32 8.68 -7 8 C-6.625 4.875 -6.625 4.875 -6 2 C-4.7934375 1.7834375 -4.7934375 1.7834375 -3.5625 1.5625 C-1.07896294 1.25864751 -1.07896294 1.25864751 0 0 Z " fill="#3C4646" transform="translate(41,71)"/>
<path d="M0 0 C4.29 0 8.58 0 13 0 C9.92832127 3.07167873 9.1672105 3.8015614 5 4 C2.1875 2.625 2.1875 2.625 0 1 C0 0.67 0 0.34 0 0 Z " fill="#F2C9BF" transform="translate(56,55)"/>
<path d="M0 0 C0.66 0 1.32 0 2 0 C2 0.99 2 1.98 2 3 C0.37585622 3.19477739 -1.24936423 3.38059458 -2.875 3.5625 C-3.77992187 3.66691406 -4.68484375 3.77132812 -5.6171875 3.87890625 C-8 4 -8 4 -10 3 C-10 2.34 -10 1.68 -10 1 C-9.36191406 1.01160156 -8.72382812 1.02320313 -8.06640625 1.03515625 C-7.24011719 1.04417969 -6.41382813 1.05320313 -5.5625 1.0625 C-4.32693359 1.07990234 -4.32693359 1.07990234 -3.06640625 1.09765625 C-1.00836062 1.23267348 -1.00836062 1.23267348 0 0 Z " fill="#FFE1D5" transform="translate(66,52)"/>
<path d="M0 0 C1.32 0 2.64 0 4 0 C4 1.65 4 3.3 4 5 C1.69 5 -0.62 5 -3 5 C-1.75 2.5 -1.75 2.5 0 0 Z " fill="#0B1C25" transform="translate(104,103)"/>
<path d="M0 0 C3.63 0.33 7.26 0.66 11 1 C11 1.99 11 2.98 11 4 C9.6696875 3.7525 9.6696875 3.7525 8.3125 3.5 C5.46403108 3.07004243 2.86995198 2.91558965 0 3 C0 2.01 0 1.02 0 0 Z " fill="#DCDBDF" transform="translate(73,59)"/>
<path d="M0 0 C0.56203125 0.16371094 1.1240625 0.32742187 1.703125 0.49609375 C4.13059056 1.02864997 6.26889681 1.09898681 8.75 1.0625 C10.1525 1.041875 11.555 1.02125 13 1 C12.67 3.97 12.34 6.94 12 10 C11.34 9.67 10.68 9.34 10 9 C10.33 7.02 10.66 5.04 11 3 C9.741875 3.061875 8.48375 3.12375 7.1875 3.1875 C3.27768014 3.20826011 3.27768014 3.20826011 1 1.5 C0.67 1.005 0.34 0.51 0 0 Z " fill="#EEBFB0" transform="translate(64,39)"/>
<path d="M0 0 C-0.99 0.33 -1.98 0.66 -3 1 C-3 1.66 -3 2.32 -3 3 C-4.98 3.33 -6.96 3.66 -9 4 C-9.33 3.01 -9.66 2.02 -10 1 C-7.62850907 -1.37149093 -2.84018261 -1.42009131 0 0 Z " fill="#8D4E41" transform="translate(75,86)"/>
<path d="M0 0 C2 0 2 0 3.625 1.25 C5 3 5 3 5 7 C5.66 7 6.32 7 7 7 C7 8.65 7 10.3 7 12 C6.67 11.01 6.34 10.02 6 9 C5.01 8.67 4.02 8.34 3 8 C2.05078125 6.15234375 2.05078125 6.15234375 1.3125 3.9375 C1.06113281 3.20402344 0.80976562 2.47054687 0.55078125 1.71484375 C0.36902344 1.14894531 0.18726562 0.58304687 0 0 Z " fill="#986962" transform="translate(64,67)"/>
<path d="M0 0 C0.99 0.33 1.98 0.66 3 1 C3 2.98 3 4.96 3 7 C1.68 7 0.36 7 -1 7 C-1.04254356 5.00045254 -1.04080783 2.99958364 -1 1 C-0.67 0.67 -0.34 0.34 0 0 Z " fill="#F1B7AA" transform="translate(59,71)"/>
<path d="M0 0 C2.64 0 5.28 0 8 0 C7.67 1.32 7.34 2.64 7 4 C5.35 4.33 3.7 4.66 2 5 C2 4.01 2 3.02 2 2 C1.34 1.34 0.68 0.68 0 0 Z " fill="#C68B71" transform="translate(70,93)"/>
<path d="M0 0 C1.38125018 2.76250036 1.19079306 4.94731099 1 8 C0.34 8.66 -0.32 9.32 -1 10 C-1.99 8.02 -2.98 6.04 -4 4 C-2.68 2.68 -1.36 1.36 0 0 Z " fill="#3C5A5C" transform="translate(34,73)"/>
<path d="M0 0 C0.33 0.99 0.66 1.98 1 3 C-0.4375 5.125 -0.4375 5.125 -2 7 C-2 7.33 -2 7.66 -2 8 C-3.65 8 -5.3 8 -7 8 C-6.02133662 6.85373678 -5.04205413 5.70800212 -4.0625 4.5625 C-3.51722656 3.92441406 -2.97195312 3.28632812 -2.41015625 2.62890625 C-1.63204305 1.73008851 -0.84063472 0.84063472 0 0 Z " fill="#040D16" transform="translate(90,100)"/>
<path d="M0 0 C0.598125 0.763125 1.19625 1.52625 1.8125 2.3125 C3.84004112 4.91335259 3.84004112 4.91335259 5.75 6.6875 C7 8 7 8 7 10 C3.22508911 8.74169637 1.53816609 7.03169839 -1 4 C-0.8125 1.6875 -0.8125 1.6875 0 0 Z " fill="#162D32" transform="translate(15,97)"/>
<path d="M0 0 C1.32 0 2.64 0 4 0 C4 0.66 4 1.32 4 2 C2.35 2.33 0.7 2.66 -1 3 C-1.33 4.98 -1.66 6.96 -2 9 C-2.33 9 -2.66 9 -3 9 C-3.33 6.69 -3.66 4.38 -4 2 C-2.68 2 -1.36 2 0 2 C0 1.34 0 0.68 0 0 Z " fill="#712B10" transform="translate(98,60)"/>
<path d="M0 0 C2.64 0.33 5.28 0.66 8 1 C5.82575883 3.50037734 4.26954202 4.43628586 1 5 C0.67 3.35 0.34 1.7 0 0 Z " fill="#D5AEA4" transform="translate(57,57)"/>
<path d="M0 0 C2.31 0.33 4.62 0.66 7 1 C6.34 2.32 5.68 3.64 5 5 C4.67 4.34 4.34 3.68 4 3 C1.97536745 2.34786708 1.97536745 2.34786708 0 2 C-0.33 2.66 -0.66 3.32 -1 4 C-0.67 2.68 -0.34 1.36 0 0 Z " fill="#860622" transform="translate(1,98)"/>
<path d="M0 0 C2.31 0 4.62 0 7 0 C7.33 1.32 7.66 2.64 8 4 C5.03 3.67 2.06 3.34 -1 3 C-0.67 2.01 -0.34 1.02 0 0 Z " fill="#6B000C" transform="translate(1,96)"/>
<path d="M0 0 C1.65 0 3.3 0 5 0 C5 1.32 5 2.64 5 4 C2.03 3.505 2.03 3.505 -1 3 C-0.67 2.01 -0.34 1.02 0 0 Z " fill="#89787C" transform="translate(76,63)"/>
<path d="M0 0 C2.52394612 3.12488567 4.39701907 6.31314387 6 10 C5.67 10.66 5.34 11.32 5 12 C2.69857565 10.21825212 1.19965609 8.83695835 0.51171875 5.953125 C0.27676898 3.9753389 0.13248542 1.98728128 0 0 Z " fill="#492500" transform="translate(99,30)"/>
<path d="M0 0 C0.66 0.33 1.32 0.66 2 1 C1.34 2.65 0.68 4.3 0 6 C-2.97 5.505 -2.97 5.505 -6 5 C-4.68 4.34 -3.36 3.68 -2 3 C-2 2.34 -2 1.68 -2 1 C-1.34 0.67 -0.68 0.34 0 0 Z " fill="#632616" transform="translate(76,98)"/>
<path d="M0 0 C1.65 0 3.3 0 5 0 C5.33 1.65 5.66 3.3 6 5 C5.34 5 4.68 5 4 5 C4 4.34 4 3.68 4 3 C2.68 3 1.36 3 0 3 C0 2.01 0 1.02 0 0 Z " fill="#133C50" transform="translate(32,95)"/>
<path d="M0 0 C3.79303725 1.00193437 6.71536341 1.81024227 10 4 C8.375 4.75 8.375 4.75 6 5 C2.75 3.125 2.75 3.125 0 1 C0 0.67 0 0.34 0 0 Z " fill="#150D0E" transform="translate(10,82)"/>
<path d="M0 0 C1.67542976 0.28604898 3.34385343 0.61781233 5 1 C4.67 2.32 4.34 3.64 4 5 C4.66 5.33 5.32 5.66 6 6 C3.03 5.505 3.03 5.505 0 5 C0.66 4.67 1.32 4.34 2 4 C2 3.34 2 2.68 2 2 C1.01 1.67 0.02 1.34 -1 1 C-0.67 0.67 -0.34 0.34 0 0 Z " fill="#A7262C" transform="translate(7,75)"/>
<path d="M0 0 C1.98 0 3.96 0 6 0 C6.33 1.32 6.66 2.64 7 4 C7.66 4 8.32 4 9 4 C8.67 4.99 8.34 5.98 8 7 C6.66382648 6.02471263 5.3311249 5.04466681 4 4.0625 C3.2575 3.51722656 2.515 2.97195312 1.75 2.41015625 C1.1725 1.94480469 0.595 1.47945313 0 1 C0 0.67 0 0.34 0 0 Z " fill="#916003" transform="translate(19,73)"/>
<path d="M0 0 C0.33 0.66 0.66 1.32 1 2 C1.66 2.33 2.32 2.66 3 3 C1.25 5.0625 1.25 5.0625 -1 7 C-3.25 6.75 -3.25 6.75 -5 6 C-4.360625 5.38125 -3.72125 4.7625 -3.0625 4.125 C-0.96116416 2.17402388 -0.96116416 2.17402388 0 0 Z " fill="#5E6870" transform="translate(84,101)"/>
<path d="M0 0 C0.556875 0.144375 1.11375 0.28875 1.6875 0.4375 C4.11384195 1.02769128 6.54906345 1.523429 9 2 C9.33 2.99 9.66 3.98 10 5 C7.69 4.67 5.38 4.34 3 4 C2.67 3.01 2.34 2.02 2 1 C1.34 0.67 0.68 0.34 0 0 Z " fill="#B68C82" transform="translate(52,95)"/>
<path d="M0 0 C1 3 1 3 0 6 C0.66 6.33 1.32 6.66 2 7 C1.01 7.495 1.01 7.495 0 8 C-2.125 7.0625 -2.125 7.0625 -4 6 C-2.25 1.125 -2.25 1.125 0 0 Z " fill="#234F5F" transform="translate(22,92)"/>
<path d="M0 0 C1.64936913 0.78427352 3.29441127 1.57765259 4.9375 2.375 C5.85402344 2.81585938 6.77054688 3.25671875 7.71484375 3.7109375 C10 5 10 5 11 7 C6.80639551 6.32902328 3.59665648 4.1441606 0 2 C0 1.34 0 0.68 0 0 Z " fill="#A41C0E" transform="translate(8,71)"/>
<path d="M0 0 C1.65 0.33 3.3 0.66 5 1 C3.25 4.875 3.25 4.875 1 6 C1 5.34 1 4.68 1 4 C0.34 3.67 -0.32 3.34 -1 3 C-0.67 2.01 -0.34 1.02 0 0 Z " fill="#BAAA32" transform="translate(29,71)"/>
<path d="M0 0 C1.61949011 2.57213134 2.04408751 3.67669159 1.625 6.75 C1.41875 7.4925 1.2125 8.235 1 9 C0.34 9 -0.32 9 -1 9 C-2.0326802 6.21176345 -2.04509293 5.1322726 -1.0625 2.25 C-0.711875 1.5075 -0.36125 0.765 0 0 Z " fill="#DBCD73" transform="translate(39,61)"/>
<path d="M0 0 C2.875 -0.125 2.875 -0.125 6 0 C6.66 0.66 7.32 1.32 8 2 C7.67 2.99 7.34 3.98 7 5 C6.01 4.67 5.02 4.34 4 4 C4 3.34 4 2.68 4 2 C2.68 1.34 1.36 0.68 0 0 Z " fill="#BDADA7" transform="translate(77,56)"/>
<path d="M0 0 C0.99 0.495 0.99 0.495 2 1 C2.6328125 3.06640625 2.6328125 3.06640625 3.125 5.5625 C3.29257813 6.38878906 3.46015625 7.21507812 3.6328125 8.06640625 C3.75398438 8.70449219 3.87515625 9.34257813 4 10 C3.01 10 2.02 10 1 10 C0.67 6.7 0.34 3.4 0 0 Z " fill="#2A1813" transform="translate(92,43)"/>
<path d="M0 0 C0.99 0.33 1.98 0.66 3 1 C3 1.66 3 2.32 3 3 C2.01 3 1.02 3 0 3 C-0.33 3.66 -0.66 4.32 -1 5 C-1.99 5.495 -1.99 5.495 -3 6 C-3.33 5.01 -3.66 4.02 -4 3 C-2.1875 1.4375 -2.1875 1.4375 0 0 Z " fill="#032A3C" transform="translate(30,97)"/>
<path d="M0 0 C1.134375 0.020625 2.26875 0.04125 3.4375 0.0625 C2.7775 1.7125 2.1175 3.3625 1.4375 5.0625 C0.7775 5.0625 0.1175 5.0625 -0.5625 5.0625 C-0.5625 4.0725 -0.5625 3.0825 -0.5625 2.0625 C-1.8825 1.7325 -3.2025 1.4025 -4.5625 1.0625 C-3.5625 0.0625 -3.5625 0.0625 0 0 Z " fill="#6A3A29" transform="translate(84.5625,93.9375)"/>
<path d="M0 0 C2.475 0.99 2.475 0.99 5 2 C4.01 2.495 4.01 2.495 3 3 C3 3.66 3 4.32 3 5 C1.68 5 0.36 5 -1 5 C-0.67 3.35 -0.34 1.7 0 0 Z " fill="#B32927" transform="translate(1,69)"/>
<path d="M0 0 C1.32 0.33 2.64 0.66 4 1 C3.67 2.65 3.34 4.3 3 6 C2.01 6 1.02 6 0 6 C0 4.02 0 2.04 0 0 Z " fill="#DEC9CD" transform="translate(52,66)"/>
<path d="M0 0 C0.66 0.33 1.32 0.66 2 1 C1 4 1 4 -1.375 5.75 C-4 7 -4 7 -7 6 C-2.25 2 -2.25 2 0 2 C0 1.34 0 0.68 0 0 Z " fill="#C09A95" transform="translate(69,54)"/>
<path d="M0 0 C0.33 0 0.66 0 1 0 C1 1.65 1 3.3 1 5 C2.65 5.33 4.3 5.66 6 6 C6 6.66 6 7.32 6 8 C4.35 8 2.7 8 1 8 C-0.35439668 5.29120665 -0.06501451 2.99066732 0 0 Z " fill="#E5C146" transform="translate(0,48)"/>
<path d="M0 0 C1.98 0 3.96 0 6 0 C4 2 4 2 1 3 C0.67 3.66 0.34 4.32 0 5 C-0.99 5 -1.98 5 -3 5 C-3 4.01 -3 3.02 -3 2 C-2.01 2 -1.02 2 0 2 C0 1.34 0 0.68 0 0 Z " fill="#EDC3B4" transform="translate(54,48)"/>
<path d="M0 0 C0.33 0 0.66 0 1 0 C1 2.64 1 5.28 1 8 C-0.32 7.67 -1.64 7.34 -3 7 C-2.01 4.69 -1.02 2.38 0 0 Z " fill="#051423" transform="translate(39,100)"/>
<path d="M0 0 C1.9375 0.3125 1.9375 0.3125 4 1 C4.33 1.99 4.66 2.98 5 4 C3.35 4 1.7 4 0 4 C0 2.68 0 1.36 0 0 Z " fill="#B02351" transform="translate(11,92)"/>
<path d="M0 0 C0.66 0 1.32 0 2 0 C1.67 1.98 1.34 3.96 1 6 C-0.65 6.33 -2.3 6.66 -4 7 C-3.67 6.34 -3.34 5.68 -3 5 C-2.34 5 -1.68 5 -1 5 C-0.67 3.35 -0.34 1.7 0 0 Z " fill="#030D15" transform="translate(44,88)"/>
<path d="M0 0 C1.2065625 0.0309375 1.2065625 0.0309375 2.4375 0.0625 C0.79580472 2.08304804 -0.87161778 4.08293058 -2.5625 6.0625 C-2.8925 6.0625 -3.2225 6.0625 -3.5625 6.0625 C-3.605221 4.39638095 -3.60313832 2.72867115 -3.5625 1.0625 C-2.5625 0.0625 -2.5625 0.0625 0 0 Z " fill="#12181D" transform="translate(105.5625,81.9375)"/>
<path d="M0 0 C1.32 0.66 2.64 1.32 4 2 C3.34 3.65 2.68 5.3 2 7 C1.34 6.67 0.68 6.34 0 6 C-0.6875 3.5 -0.6875 3.5 -1 1 C-0.67 0.67 -0.34 0.34 0 0 Z " fill="#EED35F" transform="translate(32,64)"/>
<path d="M0 0 C2.31 0 4.62 0 7 0 C7 0.66 7 1.32 7 2 C4.36 2.66 1.72 3.32 -1 4 C-0.67 2.68 -0.34 1.36 0 0 Z " fill="#7F5745" transform="translate(47,55)"/>
<path d="M0 0 C2.0625 0.4375 2.0625 0.4375 4 1 C4 2.32 4 3.64 4 5 C2.0625 4.6875 2.0625 4.6875 0 4 C-0.33 3.01 -0.66 2.02 -1 1 C-0.67 0.67 -0.34 0.34 0 0 Z " fill="#F4DB7C" transform="translate(38,56)"/>
<path d="M0 0 C1.98 0 3.96 0 6 0 C6 0.66 6 1.32 6 2 C5.01 2.33 4.02 2.66 3 3 C2.34 3.66 1.68 4.32 1 5 C0.67 3.35 0.34 1.7 0 0 Z " fill="#34270F" transform="translate(41,27)"/>
<path d="M0 0 C1.98 0.66 3.96 1.32 6 2 C6 2.66 6 3.32 6 4 C4.02 4 2.04 4 0 4 C0 2.68 0 1.36 0 0 Z " fill="#000415" transform="translate(44,104)"/>
<path d="M0 0 C1.65 0 3.3 0 5 0 C5 0.99 5 1.98 5 3 C3.02 3 1.04 3 -1 3 C-0.67 2.01 -0.34 1.02 0 0 Z " fill="#1F0000" transform="translate(1,78)"/>
<path d="M0 0 C-0.33 1.32 -0.66 2.64 -1 4 C-2.32 4 -3.64 4 -5 4 C-5 3.01 -5 2.02 -5 1 C-3 0 -3 0 0 0 Z " fill="#D7A9A5" transform="translate(84,67)"/>
<path d="M0 0 C1.98 0 3.96 0 6 0 C5.67 0.99 5.34 1.98 5 3 C3.35 3 1.7 3 0 3 C0 2.01 0 1.02 0 0 Z " fill="#9F5D35" transform="translate(86,59)"/>
<path d="M0 0 C1.32 0 2.64 0 4 0 C4.66 1.32 5.32 2.64 6 4 C3.69 3.67 1.38 3.34 -1 3 C-0.67 2.01 -0.34 1.02 0 0 Z " fill="#A17A6B" transform="translate(79,53)"/>
<path d="M0 0 C0.66 0.66 1.32 1.32 2 2 C1.01 2 0.02 2 -1 2 C-1 2.99 -1 3.98 -1 5 C-0.01 5.33 0.98 5.66 2 6 C0.02 6 -1.96 6 -4 6 C-2.25 1.125 -2.25 1.125 0 0 Z " fill="#E0B4A5" transform="translate(52,48)"/>
<path d="M0 0 C0.33 0.66 0.66 1.32 1 2 C3.02463255 2.65213292 3.02463255 2.65213292 5 3 C5 4.65 5 6.3 5 8 C4.01 7.34 3.02 6.68 2 6 C2 5.01 2 4.02 2 3 C1.34 3 0.68 3 0 3 C0 2.01 0 1.02 0 0 Z " fill="#F7D766" transform="translate(100,22)"/>
</svg>
